<?xml version="1.0" encoding="utf-8"?>
<!-- Generator: Adobe Illustrator 25.4.1, SVG Export Plug-In . SVG Version: 6.00 Build 0)  -->
<svg version="1.1" id="Capa_1" xmlns="http://www.w3.org/2000/svg" xmlns:xlink="http://www.w3.org/1999/xlink" x="0px" y="0px"
	 viewBox="0 0 792 612" style="enable-background:new 0 0 792 612;" xml:space="preserve">
<style type="text/css">
	.st0{fill:#E2B572;}
	.st1{fill:url(#SVGID_1_);}
	.st2{fill:url(#SVGID_00000029018053170292933750000015672027653744986240_);}
	.st3{fill:#1E4761;}
	.st4{fill:#020203;}
	.st5{fill:#020304;}
	.st6{fill:#1F120D;}
	.st7{fill:#FFFFFF;}
</style>
<g>
	<g>
		<path class="st0" d="M376.58,293.15h-6.7c-1.35,0-2.46-1.11-2.46-2.46v-6.7c0-1.35,1.11-2.46,2.46-2.46h6.7
			c1.35,0,2.46,1.11,2.46,2.46v6.7C379.04,292.04,377.93,293.15,376.58,293.15z"/>
		<path class="st0" d="M391.1,293.15h-6.7c-1.35,0-2.46-1.11-2.46-2.46v-6.7c0-1.35,1.11-2.46,2.46-2.46h6.7
			c1.35,0,2.46,1.11,2.46,2.46v6.7C393.56,292.04,392.45,293.15,391.1,293.15z"/>
		<path class="st0" d="M391.1,307.89h-6.7c-1.35,0-2.46-1.11-2.46-2.46v-6.7c0-1.35,1.11-2.46,2.46-2.46h6.7
			c1.35,0,2.46,1.11,2.46,2.46v6.7C393.56,306.79,392.45,307.89,391.1,307.89z"/>
		<path class="st0" d="M376.8,307.89h-6.7c-1.35,0-2.46-1.11-2.46-2.46v-6.7c0-1.35,1.11-2.46,2.46-2.46h6.7
			c1.35,0,2.46,1.11,2.46,2.46v6.7C379.26,306.79,378.16,307.89,376.8,307.89z"/>
		<linearGradient id="SVGID_1_" gradientUnits="userSpaceOnUse" x1="321.72" y1="224.8088" x2="505.6428" y2="224.8088">
			<stop  offset="0" style="stop-color:#1D445E"/>
			<stop  offset="0.1578" style="stop-color:#1E3852"/>
			<stop  offset="0.521" style="stop-color:#1C223B"/>
			<stop  offset="0.8147" style="stop-color:#19172F"/>
			<stop  offset="1" style="stop-color:#17132B"/>
		</linearGradient>
		<path class="st1" d="M505.64,250.35c0-51.2-41.17-92.71-91.96-92.71c-50.79,0-91.96,41.51-91.96,92.71c0,0.56,0.01,1.12,0.02,1.67
			l17.39-9.9c0.01-0.07,0.01-0.14,0.02-0.2l43.89-25.68l55,31.33v11.33l16.67,10l-0.05-30.42l-20.62-11.87v-16.05h-17v6.26
			l-32.85-18.91l-39.12,21.91c11.71-26.78,38.26-45.49,69.15-45.49c41.73,0,75.55,34.12,75.55,76.2c0,12.06-2.8,23.46-7.75,33.6
			l13.85,7.86C502.12,279.46,505.64,265.32,505.64,250.35z"/>
		
			<linearGradient id="SVGID_00000062903966264465520730000008896366423136524974_" gradientUnits="userSpaceOnUse" x1="286.4251" y1="297.2656" x2="492.1207" y2="297.2656">
			<stop  offset="0" style="stop-color:#17132B"/>
			<stop  offset="1" style="stop-color:#1D445E"/>
		</linearGradient>
		<path style="fill:url(#SVGID_00000062903966264465520730000008896366423136524974_);" d="M478.3,297.39
			c-0.02,0.04-0.04,0.08-0.07,0.12l-95-54.13l-44.89,24.99c-0.4-3.19-0.64-6.44-0.64-9.74l-16.42,9.7c0.34,3.21,0.85,6.36,1.5,9.46
			l-36.37,21l8.13,14.08l33.13-19.13c13.77,33.69,46.66,57.42,85.05,57.42c33.85,0,63.43-18.45,79.39-45.91L478.3,297.39z
			 M413.26,334.82c-31.66,0-60.24-21.09-71.47-48.95l41.98-23.81l84.1,49.19C454.11,325.77,434.74,334.82,413.26,334.82z"/>
		<circle class="st0" cx="382.67" cy="232.5" r="7.59"/>
	</g>
	<g>
		<path class="st3" d="M274,453.8c-5.52,2.03-11.09-1.33-14.64-11.82l-1.36-4.01h-9.6l-2.42,6.24c-0.51,1.4,0.43,2.2,1.33,2.2h0.31
			v0.35h-7.05v-0.35h0.32c1.02,0,2.25-0.59,2.98-2.02l8.67-20.81c-1.52-2.17-3.75-3.47-7.37-2.16l-0.1-0.35
			c8.2-3.47,10.66,3.23,12.4,8.16l4.27,12.1c1.98,5.61,5.88,13.48,12.25,12.12L274,453.8z M257.64,436.93l-2.76-8.17
			c-0.41-1.21-0.88-2.5-1.46-3.67l-4.61,11.83H257.64z"/>
		<path class="st3" d="M291.69,435.38c-1.13,0-1.77,0.57-1.75,1.58v5.79c-1.6,2.12-4.87,4.51-10.12,4.51
			c-7.44-0.04-12.58-5.12-12.58-12.74c0-7.64,5.14-12.74,12.57-12.74c3.85,0,6.43,1.04,8.49,2.36l0.71,4.94h-0.29
			c-1.06-4.01-4.27-6.26-8.89-6.26c-5.93,0-9.96,4.68-9.96,11.69c0,6.99,4.02,11.66,9.96,11.69c3.04,0,5.88-1.17,7.9-3.04v-6.2
			c0-1.02-0.67-1.6-1.8-1.6h-0.55v-0.35h6.86v0.35H291.69z"/>
		<path class="st3" d="M318.8,422.26v0.35h-0.57c-0.98,0-1.79,0.69-1.85,1.65v13.84c0,5.49-3.77,9.15-9.44,9.15
			c-5.82,0-9.71-3.63-9.71-9.09v-13.82c-0.02-1.01-0.84-1.73-1.85-1.73h-0.57v-0.35h7.11v0.35h-0.57c-0.99,0-1.8,0.7-1.85,1.68
			v13.36c0,5.1,2.97,8.5,7.43,8.5c4.68,0,7.79-3.22,7.8-8.05V424.3c-0.04-0.98-0.85-1.68-1.85-1.68h-0.57v-0.35H318.8z"/>
		<path class="st3" d="M341.25,444.21c0.71,1.56,2,2.2,3.08,2.2h0.29v0.35h-7.88v-0.35h0.31c0.9,0,1.84-0.8,1.33-2.2l-2.24-5.96
			h-9.43l-2.34,5.98c-0.49,1.39,0.44,2.18,1.34,2.18h0.31v0.35h-7.05v-0.35h0.32c1.06,0,2.36-0.64,3.07-2.2l7.94-18.84
			c0,0,1.3-2.83,1.3-3.61h0.32L341.25,444.21z M335.74,437.21l-4.22-11.23l-4.4,11.23H335.74z"/>
		<path class="st3" d="M357.11,436.44c1.4,1.29,1.76,2.85,1.76,4.27c0,3.87-2.53,6.55-6.55,6.55c-1.71,0-4.55-0.49-5.93-1.91
			c-0.26-1.08-0.13-3.31,0.4-4.88h0.31c-0.35,3.61,1.93,5.92,5.05,5.74c2.56-0.14,4.69-1.89,4.69-4.69c0-1.37-0.5-2.45-1.37-3.26
			l-6.71-6.23c-1.42-1.29-1.9-2.98-1.9-4.34c0-2.95,2.16-5.92,6.15-5.92c0.92,0,2.07,0.16,3,0.36h1.39v4.29h-0.34
			c0.01-2.24-1.76-3.6-3.94-3.6c-2.58,0-4.3,1.89-4.3,4.03c0,0.91,0.31,2.21,1.41,3.23L357.11,436.44z"/>
		<path class="st3" d="M385.76,436.55l-0.43,5.49c-1.84,3.02-4.98,5.21-9.84,5.21c-7.32-0.04-12.5-5.04-12.5-12.78
			c0-7.6,5-12.71,12.71-12.71c3.43,0,6.23,1.01,8.28,2.36l0.71,4.94h-0.29c-1.06-4.09-4.49-6.26-8.7-6.26
			c-6.15,0-10.07,4.66-10.07,11.62c0,7.04,3.99,11.62,9.88,11.76c4.97-0.02,9.18-2.49,9.97-9.66H385.76z"/>
		<path class="st3" d="M409.43,444.21c0.71,1.56,2,2.2,3.08,2.2h0.29v0.35h-7.88v-0.35h0.31c0.9,0,1.84-0.8,1.33-2.2l-2.24-5.96
			h-9.43l-2.34,5.98c-0.49,1.39,0.44,2.18,1.34,2.18h0.31v0.35h-7.05v-0.35h0.32c1.06,0,2.36-0.64,3.07-2.2l7.94-18.84
			c0,0,1.3-2.83,1.3-3.61h0.32L409.43,444.21z M403.92,437.21l-4.22-11.23l-4.4,11.23H403.92z"/>
		<path class="st3" d="M431.07,441.11l-2.04,5.65h-14.51l0-0.35h0.44c1.22,0,2.22-0.98,2.24-2.2v-19.4c-0.02-1.22-1.02-2.2-2.24-2.2
			h-0.44l-0.01-0.35h7.66l-0.01,0.35h-0.44c-1.23,0-2.22,0.98-2.24,2.2v20.88h5.02c3.71,0,5.13-1.92,6.21-4.58H431.07z"/>
		<path class="st3" d="M441.32,446.77h-7.66l0-0.35h0.44c1.22,0,2.22-0.98,2.24-2.2V424.8c-0.03-1.21-1.02-2.19-2.24-2.19h-0.44
			l-0.01-0.35h7.66l-0.01,0.35h-0.44c-1.22,0-2.21,0.97-2.24,2.18v19.42c0.02,1.22,1.02,2.2,2.24,2.2h0.44L441.32,446.77z"/>
		<path class="st3" d="M462.04,441.11l-2.04,5.65h-14.51l0.01-0.35h0.44c1.22,0,2.22-0.98,2.24-2.2v-19.6c0-1.13-1.07-2-2.23-2
			h-0.44l0-0.35h10.23c1.51-0.01,3.52-0.36,4.17-0.64v1.02v0.58v2.81l-0.35-0.01v-0.62c0-1.11-0.87-2.02-1.96-2.08h-7.14v10.82h5.92
			c0.94-0.02,1.69-0.78,1.69-1.72v-0.52l0.34,0v5.54l-0.34,0v-0.52c0-0.93-0.74-1.69-1.66-1.72h-5.95v10.49h5.02
			c3.71,0,5.13-1.92,6.21-4.58H462.04z"/>
		<path class="st3" d="M491.46,422.26l0,0.35h-0.65c-1.17,0-2.12,0.93-2.16,2.09v18.08c0,2.26,0.32,4.47,0.32,4.47h-0.32
			l-19.09-20.36v17.43c0.04,1.16,0.99,2.09,2.16,2.09h0.65l0.01,0.35h-7.21l0.01-0.35h0.65c1.18,0,2.14-0.95,2.16-2.12v-18.19
			c0-2.39-0.32-4.37-0.32-4.37h0.35l19.06,20.36v-17.36c-0.02-1.17-0.98-2.12-2.16-2.12h-0.65l0-0.35L491.46,422.26z"/>
		<path class="st3" d="M509.76,422.23c1.51-0.01,3.56-0.36,4.21-0.64v4.4l-0.35-0.01v-0.62c0-1.12-0.89-2.04-2-2.08h-6.63v20.97
			c0.04,1.21,1.03,2.17,2.24,2.17h0.44l0.01,0.35h-7.66l0-0.35h0.44c1.21,0,2.19-0.95,2.24-2.14v-20.99h-6.64
			c-1.11,0.05-2,0.96-2,2.08v0.62l-0.35,0.01v-4.4c0.66,0.28,2.7,0.63,4.22,0.64H509.76z"/>
		<path class="st3" d="M533.3,441.11l-2.04,5.65h-14.51l0.01-0.35h0.44c1.22,0,2.22-0.98,2.24-2.2v-19.6c0-1.13-1.07-2-2.23-2h-0.44
			l0-0.35h10.23c1.51-0.01,3.52-0.36,4.17-0.64v1.02v0.58v2.81l-0.35-0.01v-0.62c0-1.11-0.87-2.02-1.96-2.08h-7.14v10.82h5.92
			c0.94-0.02,1.69-0.78,1.69-1.72v-0.52l0.34,0v5.54l-0.34,0v-0.52c0-0.93-0.74-1.69-1.66-1.72h-5.95v10.49h5.02
			c3.71,0,5.13-1.92,6.21-4.58H533.3z"/>
		<path class="st3" d="M547.72,436.44c1.4,1.29,1.76,2.85,1.76,4.27c0,3.87-2.53,6.55-6.55,6.55c-1.71,0-4.55-0.49-5.93-1.91
			c-0.26-1.08-0.13-3.31,0.4-4.88h0.31c-0.35,3.61,1.93,5.92,5.05,5.74c2.56-0.14,4.69-1.89,4.69-4.69c0-1.37-0.5-2.45-1.37-3.26
			l-6.71-6.23c-1.42-1.29-1.9-2.98-1.9-4.34c0-2.95,2.16-5.92,6.15-5.92c0.92,0,2.07,0.16,3,0.36h1.39v4.29h-0.34
			c0.01-2.24-1.76-3.6-3.94-3.6c-2.58,0-4.3,1.89-4.3,4.03c0,0.91,0.31,2.21,1.41,3.23L547.72,436.44z"/>
	</g>
	<g>
		<path class="st0" d="M212.36,389.29c0.77,0.42,1.52,0.83,2.26,1.22c0.74,0.4,1.4,0.85,2,1.35c0.59,0.51,1.07,1.09,1.44,1.77
			s0.54,1.5,0.54,2.49c0,0.88-0.23,1.69-0.68,2.43c-0.45,0.74-1.06,1.37-1.82,1.9s-1.64,0.94-2.64,1.24c-1,0.3-2.04,0.45-3.12,0.45
			c-0.81,0-1.71-0.11-2.69-0.33s-1.99-0.74-3.02-1.55c-0.09-0.07-0.2-0.1-0.33-0.1c-0.2,0-0.34,0.08-0.43,0.23l-0.23,0.36v-3.4
			l0.73,1.22c0.29,0.48,0.66,0.9,1.12,1.24c0.46,0.34,0.96,0.62,1.5,0.83s1.1,0.36,1.68,0.45s1.14,0.13,1.67,0.13
			c0.81,0,1.61-0.11,2.38-0.33c0.77-0.22,1.45-0.54,2.05-0.97c0.59-0.43,1.07-0.96,1.43-1.58c0.36-0.63,0.54-1.36,0.54-2.19
			c0-0.59-0.18-1.13-0.53-1.6c-0.35-0.47-0.81-0.91-1.37-1.32s-1.19-0.79-1.9-1.16s-1.4-0.72-2.08-1.07
			c-0.75-0.4-1.51-0.8-2.29-1.21c-0.78-0.41-1.49-0.85-2.13-1.32c-0.64-0.47-1.17-1-1.58-1.58s-0.63-1.25-0.63-2
			c0-0.88,0.19-1.68,0.56-2.39c0.37-0.71,0.89-1.33,1.55-1.83c0.66-0.51,1.45-0.9,2.38-1.17c0.92-0.27,1.92-0.41,3-0.41
			c0.73,0,1.47,0.09,2.23,0.26c0.76,0.18,1.48,0.42,2.16,0.73c0.04,0.02,0.11,0.03,0.2,0.03c0.2,0,0.34-0.08,0.43-0.23l0.3-0.5v3.4
			l-0.43-0.69c-0.26-0.46-0.58-0.83-0.94-1.11c-0.36-0.28-0.76-0.48-1.19-0.63c-0.43-0.14-0.88-0.24-1.35-0.3
			c-0.47-0.05-0.95-0.08-1.44-0.08c-0.79,0-1.53,0.09-2.23,0.28c-0.69,0.19-1.29,0.45-1.8,0.79c-0.51,0.34-0.91,0.74-1.2,1.21
			s-0.45,0.97-0.45,1.52c0,0.79,0.2,1.46,0.61,2c0.41,0.54,0.92,1.02,1.53,1.44s1.3,0.79,2.05,1.12s1.45,0.67,2.11,1.02
			L212.36,389.29z"/>
		<path class="st0" d="M235.75,398.79l-0.92,3.37h-13l0.46-0.17c0.33-0.13,0.6-0.35,0.81-0.64s0.31-0.63,0.31-1.01v-16.63
			c0-0.37-0.1-0.71-0.31-1.01s-0.48-0.51-0.81-0.64l-0.46-0.17h12.47l0.17,2.54l-0.43-0.79c-0.15-0.29-0.37-0.51-0.64-0.68
			s-0.57-0.25-0.87-0.25h-7.56v8.58h4.85c0.35,0,0.67-0.09,0.96-0.28c0.29-0.19,0.51-0.43,0.66-0.74l0.2-0.4v3.46l-0.2-0.4
			c-0.15-0.31-0.37-0.55-0.66-0.74c-0.29-0.19-0.61-0.28-0.96-0.28h-4.85v9.37h7.75c0.95,0,1.68-0.38,2.21-1.16L235.75,398.79z"/>
		<path class="st0" d="M256.02,402.12h-3.04l-4.82-8.81c-0.29-0.51-0.72-0.76-1.29-0.76h-4.65v7.79c0,0.37,0.1,0.71,0.31,1.01
			s0.48,0.51,0.81,0.64l0.46,0.17h-4.69l0.46-0.17c0.33-0.13,0.6-0.35,0.81-0.64c0.21-0.3,0.31-0.63,0.31-1.01v-16.63
			c0-0.37-0.11-0.71-0.31-1.01c-0.21-0.3-0.48-0.51-0.81-0.64l-0.46-0.17h7.26c1.43,0,2.6,0.14,3.5,0.41
			c0.9,0.28,1.61,0.66,2.13,1.14c0.52,0.48,0.88,1.05,1.07,1.7c0.2,0.65,0.3,1.34,0.3,2.06c0,0.59-0.06,1.16-0.18,1.7
			c-0.12,0.54-0.34,1.03-0.66,1.48c-0.32,0.45-0.75,0.84-1.3,1.17s-1.25,0.57-2.11,0.73c0.15,0.04,0.29,0.14,0.4,0.28
			c0.11,0.14,0.19,0.27,0.23,0.38c0.13,0.24,0.3,0.54,0.5,0.89c0.2,0.35,0.41,0.74,0.63,1.15c0.22,0.42,0.45,0.85,0.69,1.29
			c0.24,0.44,0.47,0.87,0.69,1.29c0.53,0.99,1.09,2.02,1.68,3.1c0.31,0.57,0.77,0.98,1.39,1.22L256.02,402.12z M246.35,391.69
			c0.7,0,1.39-0.05,2.05-0.17c0.66-0.11,1.24-0.32,1.75-0.64c0.51-0.32,0.91-0.77,1.22-1.35c0.31-0.58,0.46-1.36,0.46-2.33
			c0-0.97-0.15-1.74-0.46-2.33c-0.31-0.58-0.71-1.03-1.22-1.35c-0.51-0.32-1.09-0.53-1.75-0.64s-1.34-0.17-2.05-0.17h-4.16v8.98
			H246.35z"/>
		<path class="st0" d="M276.67,381.93l-0.66,0.3c-0.64,0.31-1.08,0.78-1.32,1.42l-7.92,18.51l-7.99-18.61
			c-0.26-0.7-0.77-1.2-1.52-1.49l-0.33-0.13h4.69l-0.79,0.3c-0.24,0.09-0.41,0.24-0.51,0.45c-0.1,0.21-0.1,0.43-0.02,0.68l6.8,15.74
			l6.8-15.74c0.09-0.22,0.09-0.43,0-0.64s-0.24-0.37-0.46-0.48l-0.66-0.3H276.67z"/>
		<path class="st0" d="M283.32,401.35c0.21,0.3,0.48,0.51,0.81,0.64l0.46,0.17h-4.69l0.46-0.17c0.33-0.13,0.6-0.35,0.81-0.64
			c0.21-0.3,0.31-0.63,0.31-1.01v-16.63c0-0.37-0.11-0.71-0.31-1.01c-0.21-0.3-0.48-0.51-0.81-0.64l-0.46-0.17h4.69l-0.46,0.17
			c-0.33,0.13-0.6,0.35-0.81,0.64s-0.31,0.63-0.31,1.01v16.63C283.01,400.72,283.12,401.05,283.32,401.35z"/>
		<path class="st0" d="M298.78,382.82c-1.3,0-2.51,0.24-3.65,0.71c-1.13,0.47-2.12,1.12-2.97,1.95c-0.85,0.83-1.51,1.81-2,2.95
			s-0.73,2.38-0.73,3.7c0,1.41,0.25,2.68,0.76,3.83c0.51,1.14,1.19,2.12,2.05,2.94c0.86,0.81,1.85,1.44,2.99,1.88
			c1.13,0.44,2.32,0.66,3.55,0.66c0.48,0,1.02-0.05,1.6-0.15c0.58-0.1,1.16-0.25,1.72-0.46c0.56-0.21,1.08-0.47,1.55-0.79
			c0.47-0.32,0.85-0.7,1.14-1.14l0.53-0.86V401l-0.2-0.36c-0.09-0.15-0.22-0.23-0.4-0.23c-0.07,0-0.14,0.02-0.23,0.07
			c-0.84,0.57-1.74,1.01-2.71,1.3c-0.97,0.3-1.97,0.45-3,0.45c-1.67,0-3.17-0.26-4.5-0.79c-1.33-0.53-2.46-1.25-3.4-2.18
			c-0.94-0.92-1.66-2-2.16-3.23c-0.51-1.23-0.76-2.54-0.76-3.93c0-1.39,0.25-2.7,0.76-3.93c0.51-1.23,1.23-2.31,2.16-3.23
			c0.93-0.92,2.07-1.65,3.4-2.18c1.33-0.53,2.83-0.79,4.5-0.79c1.03,0,2.03,0.15,3,0.45c0.97,0.3,1.87,0.73,2.71,1.3
			c0.09,0.04,0.17,0.07,0.23,0.07c0.18,0,0.31-0.08,0.4-0.23l0.2-0.33v2.97l-0.5-0.83c-0.26-0.44-0.64-0.83-1.12-1.16
			c-0.48-0.33-1.02-0.6-1.6-0.81c-0.58-0.21-1.17-0.37-1.77-0.48s-1.12-0.17-1.58-0.17L298.78,382.82z"/>
		<path class="st0" d="M311.97,401.35c0.21,0.3,0.48,0.51,0.81,0.64l0.46,0.17h-4.69l0.46-0.17c0.33-0.13,0.6-0.35,0.81-0.64
			c0.21-0.3,0.31-0.63,0.31-1.01v-16.63c0-0.37-0.11-0.71-0.31-1.01c-0.21-0.3-0.48-0.51-0.81-0.64l-0.46-0.17h4.69l-0.46,0.17
			c-0.33,0.13-0.6,0.35-0.81,0.64s-0.31,0.63-0.31,1.01v16.63C311.65,400.72,311.76,401.05,311.97,401.35z"/>
		<path class="st0" d="M331.04,382.59c1.26,0.44,2.38,1.08,3.35,1.93c0.97,0.85,1.75,1.9,2.34,3.17c0.59,1.27,0.89,2.72,0.89,4.37
			c0,1.65-0.3,3.1-0.89,4.36c-0.59,1.25-1.38,2.31-2.34,3.15c-0.97,0.85-2.08,1.49-3.35,1.93c-1.27,0.44-2.58,0.66-3.94,0.66
			c-1.34,0-2.65-0.22-3.93-0.66c-1.28-0.44-2.4-1.08-3.37-1.93c-0.97-0.85-1.75-1.9-2.34-3.15c-0.59-1.25-0.89-2.71-0.89-4.36
			c0-1.65,0.3-3.11,0.89-4.37c0.59-1.26,1.37-2.32,2.34-3.17c0.97-0.85,2.09-1.49,3.37-1.93c1.28-0.44,2.58-0.66,3.93-0.66
			C328.46,381.93,329.78,382.15,331.04,382.59z M330.81,400.59c1.11-0.5,2.06-1.16,2.84-2c0.78-0.84,1.38-1.82,1.8-2.95
			c0.42-1.13,0.63-2.33,0.63-3.58s-0.21-2.45-0.63-3.58c-0.42-1.13-1.02-2.12-1.8-2.95c-0.78-0.84-1.73-1.5-2.84-2
			c-1.11-0.5-2.35-0.74-3.71-0.74c-1.39,0-2.63,0.25-3.75,0.74c-1.11,0.5-2.06,1.16-2.84,2c-0.78,0.84-1.38,1.82-1.8,2.95
			c-0.42,1.13-0.63,2.33-0.63,3.58s0.21,2.45,0.63,3.58c0.42,1.13,1.02,2.12,1.8,2.95c0.78,0.84,1.73,1.5,2.84,2
			c1.11,0.5,2.36,0.74,3.75,0.74C328.46,401.33,329.7,401.08,330.81,400.59z"/>
		<path class="st0" d="M348.48,390.97c0.66,0.35,1.32,0.7,1.98,1.04c0.66,0.34,1.25,0.73,1.77,1.17s0.94,0.96,1.25,1.55
			c0.32,0.59,0.48,1.32,0.48,2.18c0,0.77-0.2,1.48-0.59,2.13c-0.4,0.65-0.93,1.2-1.6,1.67s-1.44,0.83-2.31,1.09
			c-0.87,0.26-1.78,0.4-2.72,0.4c-0.7,0-1.49-0.09-2.36-0.28s-1.75-0.64-2.66-1.37c-0.07-0.07-0.15-0.1-0.26-0.1
			c-0.15,0-0.28,0.08-0.36,0.23l-0.2,0.33v-2.97l0.63,1.06c0.26,0.42,0.59,0.78,0.99,1.07c0.4,0.3,0.83,0.54,1.3,0.73
			c0.47,0.19,0.96,0.32,1.47,0.4s0.99,0.12,1.45,0.12c0.7,0,1.39-0.09,2.06-0.28s1.27-0.47,1.8-0.84c0.53-0.37,0.95-0.84,1.27-1.4
			c0.32-0.56,0.48-1.2,0.48-1.93c0-0.51-0.15-0.97-0.46-1.39c-0.31-0.42-0.71-0.8-1.21-1.16c-0.5-0.35-1.04-0.68-1.65-0.99
			c-0.61-0.31-1.21-0.63-1.8-0.96c-0.66-0.35-1.33-0.71-2.01-1.07c-0.68-0.36-1.3-0.75-1.87-1.17c-0.56-0.42-1.02-0.88-1.39-1.39
			c-0.36-0.51-0.54-1.09-0.54-1.75c0-0.77,0.17-1.47,0.5-2.11c0.33-0.64,0.78-1.18,1.35-1.62c0.57-0.44,1.26-0.78,2.06-1.02
			c0.8-0.24,1.68-0.36,2.62-0.36c0.64,0,1.29,0.08,1.95,0.23c0.66,0.15,1.29,0.37,1.88,0.66c0.04,0.02,0.11,0.03,0.2,0.03
			c0.15,0,0.26-0.07,0.33-0.2l0.26-0.43v2.97l-0.36-0.63c-0.48-0.81-1.1-1.33-1.85-1.53s-1.55-0.31-2.41-0.31
			c-0.68,0-1.33,0.08-1.95,0.25c-0.62,0.17-1.14,0.4-1.58,0.69c-0.44,0.3-0.79,0.64-1.06,1.04c-0.26,0.4-0.4,0.84-0.4,1.32
			c0,0.68,0.18,1.26,0.54,1.73c0.36,0.47,0.81,0.89,1.35,1.25c0.54,0.36,1.13,0.69,1.78,0.99c0.65,0.3,1.27,0.6,1.86,0.91
			L348.48,390.97z"/>
		<path class="st0" d="M372.62,401.23c0.23,0.33,0.53,0.57,0.91,0.73l0.53,0.2h-5.38l0.53-0.2c0.37-0.15,0.68-0.4,0.91-0.73
			c0.23-0.33,0.35-0.7,0.35-1.12v-18.97c0-0.42-0.12-0.79-0.35-1.12c-0.23-0.33-0.53-0.57-0.91-0.73l-0.53-0.2h5.38l-0.53,0.2
			c-0.37,0.15-0.68,0.4-0.91,0.73c-0.23,0.33-0.35,0.7-0.35,1.12v18.97C372.27,400.53,372.39,400.9,372.62,401.23z"/>
		<path class="st0" d="M395.7,381.99l-0.5,0.23c-0.31,0.15-0.56,0.37-0.74,0.66c-0.19,0.29-0.28,0.59-0.28,0.92v18.41l-14.49-18.45
			v16.63c0,0.33,0.09,0.64,0.28,0.92c0.19,0.29,0.43,0.51,0.74,0.66l0.49,0.23h-3.83l0.49-0.23c0.31-0.15,0.56-0.37,0.74-0.66
			c0.19-0.29,0.28-0.59,0.28-0.92v-16.63c0-0.33-0.09-0.64-0.28-0.92c-0.19-0.29-0.43-0.51-0.74-0.66l-0.49-0.23h2.87l13.13,16.7
			v-14.92c0-0.33-0.09-0.64-0.28-0.92c-0.19-0.29-0.43-0.51-0.74-0.66l-0.5-0.23L395.7,381.99z"/>
		<path class="st0" d="M418.77,400.41c0,0.38,0.1,0.71,0.31,1.01s0.48,0.51,0.81,0.64l0.46,0.17h-4.69l0.46-0.17
			c0.33-0.13,0.6-0.35,0.81-0.64c0.21-0.3,0.31-0.63,0.31-1.01v-16.76l-7.95,18.55l-7.99-18.61v16.8c0,0.33,0.09,0.64,0.28,0.92
			s0.43,0.51,0.74,0.66l0.49,0.23H399l0.49-0.23c0.31-0.15,0.56-0.37,0.74-0.66c0.19-0.29,0.28-0.59,0.28-0.92v-16.63
			c0-0.33-0.09-0.64-0.28-0.92c-0.19-0.29-0.43-0.51-0.74-0.66l-0.49-0.23h3.33l7.36,17.13l7.33-17.13h3.33l-0.46,0.17
			c-0.33,0.13-0.6,0.35-0.81,0.64s-0.31,0.63-0.31,1.01V400.41z"/>
		<path class="st0" d="M438.16,382.59c1.26,0.44,2.38,1.08,3.35,1.93c0.97,0.85,1.75,1.9,2.34,3.17c0.59,1.27,0.89,2.72,0.89,4.37
			c0,1.65-0.3,3.1-0.89,4.36c-0.59,1.25-1.38,2.31-2.34,3.15c-0.97,0.85-2.08,1.49-3.35,1.93c-1.27,0.44-2.58,0.66-3.94,0.66
			c-1.34,0-2.65-0.22-3.93-0.66c-1.28-0.44-2.4-1.08-3.37-1.93c-0.97-0.85-1.75-1.9-2.34-3.15c-0.59-1.25-0.89-2.71-0.89-4.36
			c0-1.65,0.3-3.11,0.89-4.37c0.59-1.26,1.37-2.32,2.34-3.17c0.97-0.85,2.09-1.49,3.37-1.93c1.28-0.44,2.58-0.66,3.93-0.66
			C435.58,381.93,436.89,382.15,438.16,382.59z M437.93,400.59c1.11-0.5,2.06-1.16,2.84-2c0.78-0.84,1.38-1.82,1.8-2.95
			c0.42-1.13,0.63-2.33,0.63-3.58s-0.21-2.45-0.63-3.58c-0.42-1.13-1.02-2.12-1.8-2.95c-0.78-0.84-1.73-1.5-2.84-2
			c-1.11-0.5-2.35-0.74-3.71-0.74c-1.39,0-2.63,0.25-3.75,0.74c-1.11,0.5-2.06,1.16-2.84,2c-0.78,0.84-1.38,1.82-1.8,2.95
			c-0.42,1.13-0.63,2.33-0.63,3.58s0.21,2.45,0.63,3.58c0.42,1.13,1.02,2.12,1.8,2.95c0.78,0.84,1.73,1.5,2.84,2
			c1.11,0.5,2.36,0.74,3.75,0.74C435.58,401.33,436.82,401.08,437.93,400.59z"/>
		<path class="st0" d="M459.62,391.13c1.39,0.42,2.46,1.07,3.22,1.96c0.76,0.89,1.14,2,1.14,3.32c0,1.8-0.7,3.21-2.1,4.22
			s-3.33,1.52-5.79,1.52h-8.05l0.46-0.17c0.33-0.13,0.6-0.35,0.81-0.64c0.21-0.3,0.31-0.63,0.31-1.01v-16.63
			c0-0.37-0.11-0.71-0.31-1.01c-0.21-0.3-0.48-0.51-0.81-0.64l-0.46-0.17h7.26c0.97,0,1.88,0.06,2.72,0.18
			c0.85,0.12,1.58,0.36,2.21,0.73c0.63,0.36,1.12,0.88,1.48,1.55c0.36,0.67,0.54,1.56,0.54,2.66c0,0.92-0.24,1.73-0.71,2.42
			c-0.47,0.69-1.11,1.26-1.9,1.7H459.62z M451.11,382.72v8.12h4.79c0.64,0,1.24-0.05,1.82-0.15c0.57-0.1,1.08-0.29,1.52-0.58
			c0.44-0.29,0.79-0.68,1.06-1.17c0.26-0.5,0.4-1.14,0.4-1.93c0-0.84-0.13-1.53-0.38-2.08s-0.6-0.99-1.04-1.32
			c-0.44-0.33-0.95-0.56-1.52-0.69c-0.57-0.13-1.18-0.2-1.81-0.2H451.11z M456.59,401.3c0.57,0,1.2-0.07,1.88-0.21
			c0.68-0.14,1.32-0.4,1.91-0.78s1.09-0.88,1.48-1.52c0.4-0.64,0.59-1.44,0.59-2.41c0-1.72-0.53-2.93-1.58-3.65
			c-1.06-0.71-2.5-1.07-4.32-1.07h-5.45v9.64H456.59z"/>
		<path class="st0" d="M470.73,401.35c0.21,0.3,0.48,0.51,0.81,0.64l0.46,0.17h-4.69l0.46-0.17c0.33-0.13,0.6-0.35,0.81-0.64
			c0.21-0.3,0.31-0.63,0.31-1.01v-16.63c0-0.37-0.11-0.71-0.31-1.01c-0.21-0.3-0.48-0.51-0.81-0.64l-0.46-0.17H472l-0.46,0.17
			c-0.33,0.13-0.6,0.35-0.81,0.64s-0.31,0.63-0.31,1.01v16.63C470.42,400.72,470.52,401.05,470.73,401.35z"/>
		<path class="st0" d="M489.19,398.76l-0.92,3.37h-13l0.46-0.17c0.33-0.13,0.6-0.35,0.81-0.64c0.21-0.3,0.31-0.63,0.31-1.01v-16.63
			c0-0.37-0.1-0.71-0.31-1.01c-0.21-0.3-0.48-0.51-0.81-0.64l-0.46-0.17h4.69l-0.46,0.17c-0.33,0.13-0.6,0.35-0.81,0.64
			s-0.31,0.63-0.31,1.01v17.62h7.75c0.95,0,1.68-0.38,2.21-1.16L489.19,398.76z"/>
		<path class="st0" d="M495.94,401.35c0.21,0.3,0.48,0.51,0.81,0.64l0.46,0.17h-4.69l0.46-0.17c0.33-0.13,0.6-0.35,0.81-0.64
			c0.21-0.3,0.31-0.63,0.31-1.01v-16.63c0-0.37-0.11-0.71-0.31-1.01c-0.21-0.3-0.48-0.51-0.81-0.64l-0.46-0.17h4.69l-0.46,0.17
			c-0.33,0.13-0.6,0.35-0.81,0.64s-0.31,0.63-0.31,1.01v16.63C495.63,400.72,495.73,401.05,495.94,401.35z"/>
		<path class="st0" d="M516.32,401.86h-0.07c0.24-0.09,0.41-0.24,0.51-0.45c0.1-0.21,0.1-0.43,0.02-0.68l-2.9-6.7h-7.79l-2.9,6.7
			c-0.09,0.22-0.09,0.43,0,0.64c0.09,0.21,0.24,0.37,0.46,0.48l0.66,0.3h-3.83l0.66-0.3c0.64-0.31,1.08-0.78,1.32-1.42l7.92-18.51
			l7.99,18.61c0.26,0.71,0.77,1.2,1.52,1.49l0.33,0.13h-4.69L516.32,401.86z M506.42,393.21h7.1l-3.56-8.22L506.42,393.21z"/>
		<path class="st0" d="M539.61,402.12h-3.04l-4.82-8.81c-0.29-0.51-0.72-0.76-1.29-0.76h-4.65v7.79c0,0.37,0.1,0.71,0.31,1.01
			s0.48,0.51,0.81,0.64l0.46,0.17h-4.69l0.46-0.17c0.33-0.13,0.6-0.35,0.81-0.64c0.21-0.3,0.31-0.63,0.31-1.01v-16.63
			c0-0.37-0.11-0.71-0.31-1.01c-0.21-0.3-0.48-0.51-0.81-0.64l-0.46-0.17h7.26c1.43,0,2.6,0.14,3.5,0.41
			c0.9,0.28,1.61,0.66,2.13,1.14c0.52,0.48,0.88,1.05,1.07,1.7c0.2,0.65,0.3,1.34,0.3,2.06c0,0.59-0.06,1.16-0.18,1.7
			c-0.12,0.54-0.34,1.03-0.66,1.48c-0.32,0.45-0.75,0.84-1.3,1.17s-1.25,0.57-2.11,0.73c0.15,0.04,0.29,0.14,0.4,0.28
			c0.11,0.14,0.19,0.27,0.23,0.38c0.13,0.24,0.3,0.54,0.5,0.89c0.2,0.35,0.41,0.74,0.63,1.15c0.22,0.42,0.45,0.85,0.69,1.29
			c0.24,0.44,0.47,0.87,0.69,1.29c0.53,0.99,1.09,2.02,1.68,3.1c0.31,0.57,0.77,0.98,1.39,1.22L539.61,402.12z M529.95,391.69
			c0.7,0,1.39-0.05,2.05-0.17c0.66-0.11,1.24-0.32,1.75-0.64c0.51-0.32,0.91-0.77,1.22-1.35c0.31-0.58,0.46-1.36,0.46-2.33
			c0-0.97-0.15-1.74-0.46-2.33c-0.31-0.58-0.71-1.03-1.22-1.35c-0.51-0.32-1.09-0.53-1.75-0.64s-1.34-0.17-2.05-0.17h-4.16v8.98
			H529.95z"/>
		<path class="st0" d="M546.36,401.35c0.21,0.3,0.48,0.51,0.81,0.64l0.46,0.17h-4.69l0.46-0.17c0.33-0.13,0.6-0.35,0.81-0.64
			c0.21-0.3,0.31-0.63,0.31-1.01v-16.63c0-0.37-0.11-0.71-0.31-1.01c-0.21-0.3-0.48-0.51-0.81-0.64l-0.46-0.17h4.69l-0.46,0.17
			c-0.33,0.13-0.6,0.35-0.81,0.64s-0.31,0.63-0.31,1.01v16.63C546.05,400.72,546.15,401.05,546.36,401.35z"/>
		<path class="st0" d="M565.44,382.59c1.26,0.44,2.38,1.08,3.35,1.93c0.97,0.85,1.75,1.9,2.34,3.17c0.59,1.27,0.89,2.72,0.89,4.37
			c0,1.65-0.3,3.1-0.89,4.36c-0.59,1.25-1.38,2.31-2.34,3.15c-0.97,0.85-2.08,1.49-3.35,1.93c-1.27,0.44-2.58,0.66-3.94,0.66
			c-1.34,0-2.65-0.22-3.93-0.66c-1.28-0.44-2.4-1.08-3.37-1.93c-0.97-0.85-1.75-1.9-2.34-3.15c-0.59-1.25-0.89-2.71-0.89-4.36
			c0-1.65,0.3-3.11,0.89-4.37c0.59-1.26,1.37-2.32,2.34-3.17c0.97-0.85,2.09-1.49,3.37-1.93c1.28-0.44,2.58-0.66,3.93-0.66
			C562.86,381.93,564.17,382.15,565.44,382.59z M565.21,400.59c1.11-0.5,2.06-1.16,2.84-2c0.78-0.84,1.38-1.82,1.8-2.95
			c0.42-1.13,0.63-2.33,0.63-3.58s-0.21-2.45-0.63-3.58c-0.42-1.13-1.02-2.12-1.8-2.95c-0.78-0.84-1.73-1.5-2.84-2
			c-1.11-0.5-2.35-0.74-3.71-0.74c-1.39,0-2.63,0.25-3.75,0.74c-1.11,0.5-2.06,1.16-2.84,2c-0.78,0.84-1.38,1.82-1.8,2.95
			c-0.42,1.13-0.63,2.33-0.63,3.58s0.21,2.45,0.63,3.58c0.42,1.13,1.02,2.12,1.8,2.95c0.78,0.84,1.73,1.5,2.84,2
			c1.11,0.5,2.36,0.74,3.75,0.74C562.86,401.33,564.09,401.08,565.21,400.59z"/>
		<path class="st0" d="M582.88,390.97c0.66,0.35,1.32,0.7,1.98,1.04c0.66,0.34,1.25,0.73,1.77,1.17s0.94,0.96,1.25,1.55
			c0.32,0.59,0.48,1.32,0.48,2.18c0,0.77-0.2,1.48-0.59,2.13c-0.4,0.65-0.93,1.2-1.6,1.67s-1.44,0.83-2.31,1.09
			c-0.87,0.26-1.78,0.4-2.72,0.4c-0.7,0-1.49-0.09-2.36-0.28s-1.75-0.64-2.66-1.37c-0.07-0.07-0.15-0.1-0.26-0.1
			c-0.15,0-0.28,0.08-0.36,0.23l-0.2,0.33v-2.97l0.63,1.06c0.26,0.42,0.59,0.78,0.99,1.07c0.4,0.3,0.83,0.54,1.3,0.73
			c0.47,0.19,0.96,0.32,1.47,0.4s0.99,0.12,1.45,0.12c0.7,0,1.39-0.09,2.06-0.28s1.27-0.47,1.8-0.84c0.53-0.37,0.95-0.84,1.27-1.4
			c0.32-0.56,0.48-1.2,0.48-1.93c0-0.51-0.15-0.97-0.46-1.39c-0.31-0.42-0.71-0.8-1.21-1.16c-0.5-0.35-1.04-0.68-1.65-0.99
			c-0.61-0.31-1.21-0.63-1.8-0.96c-0.66-0.35-1.33-0.71-2.01-1.07c-0.68-0.36-1.3-0.75-1.87-1.17c-0.56-0.42-1.02-0.88-1.39-1.39
			c-0.36-0.51-0.54-1.09-0.54-1.75c0-0.77,0.17-1.47,0.5-2.11c0.33-0.64,0.78-1.18,1.35-1.62c0.57-0.44,1.26-0.78,2.06-1.02
			c0.8-0.24,1.68-0.36,2.62-0.36c0.64,0,1.29,0.08,1.95,0.23c0.66,0.15,1.29,0.37,1.88,0.66c0.04,0.02,0.11,0.03,0.2,0.03
			c0.15,0,0.26-0.07,0.33-0.2l0.26-0.43v2.97l-0.36-0.63c-0.48-0.81-1.1-1.33-1.85-1.53s-1.55-0.31-2.41-0.31
			c-0.68,0-1.33,0.08-1.95,0.25c-0.62,0.17-1.14,0.4-1.58,0.69c-0.44,0.3-0.79,0.64-1.06,1.04c-0.26,0.4-0.4,0.84-0.4,1.32
			c0,0.68,0.18,1.26,0.54,1.73c0.36,0.47,0.81,0.89,1.35,1.25c0.54,0.36,1.13,0.69,1.78,0.99c0.65,0.3,1.27,0.6,1.86,0.91
			L582.88,390.97z"/>
	</g>
</g>
</svg>
