<svg id="Capa_1" data-name="Capa 1" xmlns="http://www.w3.org/2000/svg" viewBox="0 0 431.64 343.18"><defs><style>.cls-1{fill:#fff;}</style></defs><rect class="cls-1" x="185.13" y="146.3" width="12.48" height="12.48" rx="2.64"/><rect class="cls-1" x="200.72" y="146.3" width="12.48" height="12.48" rx="2.64"/><rect class="cls-1" x="200.72" y="162.12" width="12.48" height="12.48" rx="2.64"/><rect class="cls-1" x="185.37" y="162.12" width="12.48" height="12.48" rx="2.64"/><path class="cls-1" d="M333.52,112.83c0-55-44.2-99.53-98.72-99.53s-98.72,44.56-98.72,99.53c0,.6,0,1.2,0,1.79L154.77,104c0-.07,0-.14,0-.21L201.9,76.21l59,33.63V122l17.89,10.74-.06-32.66L256.65,87.35V70.12H238.4v6.73L203.13,56.54l-42,23.52a81.08,81.08,0,0,1,74.23-48.84c44.79,0,81.11,36.63,81.11,81.8a82,82,0,0,1-8.32,36.07L323,157.53A99.73,99.73,0,0,0,333.52,112.83Z"/><path class="cls-1" d="M304.17,163.33l-.08.13-102-58.11-48.19,26.82a83.75,83.75,0,0,1-.68-10.45l-17.63,10.41a102.67,102.67,0,0,0,1.62,10.15l-39,22.54,8.73,15.12,35.56-20.53A98.39,98.39,0,0,0,319,171.76Zm-69.82,40.19c-34,0-64.67-22.65-76.73-52.56l45.07-25.55L293,178.21A80.5,80.5,0,0,1,234.35,203.52Z"/><circle class="cls-1" cx="201.51" cy="93.67" r="8.14"/><path class="cls-1" d="M92.75,329.32c-5.57,2-11.19-1.35-14.78-11.92l-1.36-4H66.92l-2.44,6.29a1.5,1.5,0,0,0,1.34,2.22h.31v.35H59v-.35h.32a3.44,3.44,0,0,0,3-2l8.75-21c-1.54-2.19-3.78-3.5-7.44-2.17l-.1-.36c8.27-3.5,10.75,3.26,12.51,8.23l4.3,12.2c2,5.66,5.94,13.6,12.36,12.22Zm-16.5-17-2.79-8.24a29.12,29.12,0,0,0-1.48-3.7L67.33,312.3Z"/><path class="cls-1" d="M110.59,310.73c-1.14,0-1.78.58-1.76,1.6v5.84c-1.61,2.14-4.91,4.55-10.21,4.55-7.51,0-12.69-5.17-12.69-12.86S91.11,297,98.61,297a14.92,14.92,0,0,1,8.55,2.39l.72,5h-.3c-1.07-4-4.3-6.31-9-6.31-6,0-10.05,4.72-10.05,11.8s4.06,11.76,10.05,11.79a11.8,11.8,0,0,0,8-3.06v-6.26c0-1-.67-1.61-1.81-1.61h-.56v-.35h6.92v.35Z"/><path class="cls-1" d="M137.94,297.5v.36h-.58a1.8,1.8,0,0,0-1.86,1.67v14c0,5.53-3.81,9.23-9.52,9.23-5.87,0-9.79-3.67-9.79-9.17V299.61a1.8,1.8,0,0,0-1.87-1.75h-.57v-.36h7.17v.36h-.58a1.79,1.79,0,0,0-1.86,1.69V313c0,5.14,3,8.57,7.5,8.57,4.71,0,7.86-3.24,7.87-8.11V299.56a1.8,1.8,0,0,0-1.87-1.7h-.57v-.35Z"/><path class="cls-1" d="M160.59,319.64a3.48,3.48,0,0,0,3.1,2.23h.3v.35h-8v-.35h.31a1.5,1.5,0,0,0,1.34-2.22l-2.26-6h-9.51l-2.36,6a1.5,1.5,0,0,0,1.35,2.2h.31v.35h-7.11v-.35h.32a3.49,3.49,0,0,0,3.09-2.22l8-19a18.65,18.65,0,0,0,1.3-3.64h.32ZM155,312.58l-4.25-11.33-4.44,11.33Z"/><path class="cls-1" d="M176.59,311.81a5.57,5.57,0,0,1,1.77,4.3,6.22,6.22,0,0,1-6.61,6.61c-1.73,0-4.59-.5-6-1.93a10.86,10.86,0,0,1,.41-4.93h.31c-.36,3.64,1.95,6,5.09,5.79a4.7,4.7,0,0,0,4.73-4.73,4.31,4.31,0,0,0-1.38-3.29l-6.77-6.28A6,6,0,0,1,172.45,297a15.76,15.76,0,0,1,3,.36h1.4v4.33h-.34c0-2.25-1.77-3.63-4-3.63a4.14,4.14,0,0,0-4.34,4.06,4.43,4.43,0,0,0,1.42,3.26Z"/><path class="cls-1" d="M205.49,311.92l-.43,5.54c-1.86,3-5,5.26-9.93,5.26-7.38,0-12.61-5.09-12.61-12.89s5-12.82,12.82-12.82a15.07,15.07,0,0,1,8.35,2.39l.72,5h-.3c-1.07-4.12-4.53-6.31-8.77-6.31-6.21,0-10.17,4.7-10.17,11.72s4,11.72,10,11.87c5,0,9.26-2.51,10.06-9.74Z"/><path class="cls-1" d="M229.37,319.64a3.48,3.48,0,0,0,3.1,2.23h.3v.35h-8v-.35h.31a1.5,1.5,0,0,0,1.34-2.22l-2.26-6H214.7l-2.37,6a1.51,1.51,0,0,0,1.35,2.2H214v.35h-7.1v-.35h.31a3.5,3.5,0,0,0,3.1-2.22l8-19a18.56,18.56,0,0,0,1.31-3.64h.32Zm-5.56-7.06-4.25-11.33-4.45,11.33Z"/><path class="cls-1" d="M251.19,316.52l-2.06,5.7H234.5v-.35H235a2.26,2.26,0,0,0,2.26-2.22V300.08a2.26,2.26,0,0,0-2.26-2.22h-.45v-.35h7.72v.35h-.45a2.26,2.26,0,0,0-2.26,2.22v21.06h5.06c3.74,0,5.18-1.94,6.27-4.62Z"/><path class="cls-1" d="M261.53,322.22h-7.72v-.35h.44a2.26,2.26,0,0,0,2.26-2.22V300.06a2.26,2.26,0,0,0-2.26-2.2h-.44v-.36h7.72v.36h-.45a2.26,2.26,0,0,0-2.26,2.19v19.6a2.26,2.26,0,0,0,2.26,2.22h.45Z"/><path class="cls-1" d="M282.44,316.52l-2.06,5.7H265.75v-.35h.45a2.26,2.26,0,0,0,2.26-2.22V299.88a2.17,2.17,0,0,0-2.25-2h-.45v-.36h10.32a15,15,0,0,0,4.21-.64v4.46h-.36v-.63a2.11,2.11,0,0,0-2-2.11h-7.2V309.5h6a1.74,1.74,0,0,0,1.71-1.74v-.52h.34v5.58h-.34v-.52a1.74,1.74,0,0,0-1.67-1.74h-6v10.58h5.07c3.74,0,5.18-1.94,6.27-4.62Z"/><path class="cls-1" d="M312.11,297.5v.36h-.65a2.17,2.17,0,0,0-2.18,2.11v18.24a36.26,36.26,0,0,0,.32,4.51h-.32L290,302.18v17.58a2.18,2.18,0,0,0,2.18,2.11h.65v.35h-7.27v-.35h.65a2.18,2.18,0,0,0,2.18-2.14V301.39a31.2,31.2,0,0,0-.32-4.41h.35l19.22,20.53V300a2.17,2.17,0,0,0-2.18-2.14h-.65v-.36Z"/><path class="cls-1" d="M330.58,297.47a15.35,15.35,0,0,0,4.25-.64v4.44h-.36v-.63a2.1,2.1,0,0,0-2-2.1h-6.69v21.15a2.26,2.26,0,0,0,2.26,2.19h.44v.35h-7.73v-.35h.44a2.26,2.26,0,0,0,2.26-2.16V298.53h-6.69a2.11,2.11,0,0,0-2,2.1v.63h-.35v-4.44a15.29,15.29,0,0,0,4.25.64Z"/><path class="cls-1" d="M354.33,316.52l-2.06,5.7H337.63v-.35h.44a2.27,2.27,0,0,0,2.27-2.22V299.88a2.17,2.17,0,0,0-2.25-2h-.45v-.36H348a15,15,0,0,0,4.21-.64v4.46h-.36v-.63a2.11,2.11,0,0,0-2-2.11h-7.2V309.5h6a1.74,1.74,0,0,0,1.7-1.74v-.52h.35v5.58h-.35v-.52a1.74,1.74,0,0,0-1.67-1.74h-6v10.58h5.06c3.74,0,5.18-1.94,6.27-4.62Z"/><path class="cls-1" d="M368.87,311.81a5.57,5.57,0,0,1,1.77,4.3,6.22,6.22,0,0,1-6.61,6.61c-1.73,0-4.59-.5-6-1.93a10.86,10.86,0,0,1,.41-4.93h.31c-.35,3.64,2,6,5.09,5.79a4.7,4.7,0,0,0,4.73-4.73,4.31,4.31,0,0,0-1.38-3.29l-6.77-6.28a6,6,0,0,1,4.3-10.34,15.65,15.65,0,0,1,3,.36h1.4v4.33h-.34c0-2.25-1.77-3.63-4-3.63a4.14,4.14,0,0,0-4.34,4.06,4.47,4.47,0,0,0,1.42,3.26Z"/><path class="cls-1" d="M19.34,261.17l2.42,1.3a12.26,12.26,0,0,1,2.13,1.45,6.5,6.5,0,0,1,1.54,1.89,5.51,5.51,0,0,1,.58,2.66,4.9,4.9,0,0,1-.72,2.6,6.8,6.8,0,0,1-1.94,2,9.84,9.84,0,0,1-2.83,1.32,11.56,11.56,0,0,1-3.33.48,13.51,13.51,0,0,1-2.88-.35,8.24,8.24,0,0,1-3.23-1.66.59.59,0,0,0-.36-.11.49.49,0,0,0-.46.25l-.24.39v-3.64l.77,1.31a4.58,4.58,0,0,0,1.2,1.32,6.63,6.63,0,0,0,1.61.88,8,8,0,0,0,1.8.48,12.64,12.64,0,0,0,1.79.14,9.44,9.44,0,0,0,2.54-.35,7.15,7.15,0,0,0,2.19-1,5.53,5.53,0,0,0,1.53-1.7,4.58,4.58,0,0,0,.58-2.35,2.78,2.78,0,0,0-.56-1.71A6.85,6.85,0,0,0,22,265.35a15,15,0,0,0-2-1.24L17.75,263l-2.45-1.29A17.73,17.73,0,0,1,13,260.27a8.05,8.05,0,0,1-1.7-1.7,3.63,3.63,0,0,1-.67-2.14,5.46,5.46,0,0,1,.6-2.56,6.1,6.1,0,0,1,1.66-2,8,8,0,0,1,2.54-1.25,11.39,11.39,0,0,1,3.22-.44,10.43,10.43,0,0,1,2.38.28,12.55,12.55,0,0,1,2.31.78.61.61,0,0,0,.22,0,.47.47,0,0,0,.45-.24l.32-.53v3.63l-.46-.74a3.77,3.77,0,0,0-1-1.18,4.42,4.42,0,0,0-1.27-.67,7.63,7.63,0,0,0-1.45-.32,13.13,13.13,0,0,0-1.54-.09,9.07,9.07,0,0,0-2.38.3,6.5,6.5,0,0,0-1.92.85A4.4,4.4,0,0,0,13,253.61a2.9,2.9,0,0,0-.48,1.62,3.49,3.49,0,0,0,.65,2.14,7,7,0,0,0,1.65,1.54,14.51,14.51,0,0,0,2.18,1.2c.8.35,1.56.71,2.26,1.09Z"/><path class="cls-1" d="M44.37,271.33l-1,3.61H29.47l.5-.18a1.92,1.92,0,0,0,1.2-1.77V255.2a1.92,1.92,0,0,0-1.2-1.77l-.5-.17H42.82L43,256l-.45-.84a1.94,1.94,0,0,0-.69-.73,1.88,1.88,0,0,0-.94-.26H32.83v9.18H38a1.84,1.84,0,0,0,1-.3,2,2,0,0,0,.71-.8l.21-.42v3.71l-.21-.43a2,2,0,0,0-.71-.79,1.84,1.84,0,0,0-1-.3H32.83v10h8.29a2.71,2.71,0,0,0,2.37-1.24Z"/><path class="cls-1" d="M66.05,274.9H62.8l-5.15-9.43a1.5,1.5,0,0,0-1.38-.81h-5V273a1.8,1.8,0,0,0,.34,1.08,1.87,1.87,0,0,0,.86.69l.49.18H48l.5-.18a1.92,1.92,0,0,0,1.2-1.77V255.2a1.92,1.92,0,0,0-1.2-1.77l-.5-.17h7.77a12.89,12.89,0,0,1,3.74.44,5.6,5.6,0,0,1,2.28,1.22,4.16,4.16,0,0,1,1.15,1.81,7.62,7.62,0,0,1,.31,2.21,8.26,8.26,0,0,1-.19,1.82,4.39,4.39,0,0,1-.71,1.59,4.46,4.46,0,0,1-1.39,1.25,6.87,6.87,0,0,1-2.26.78.87.87,0,0,1,.42.3,1.93,1.93,0,0,1,.25.4l.53,1c.21.37.44.79.67,1.23s.48.91.74,1.38.51.93.74,1.38l1.8,3.32a2.8,2.8,0,0,0,1.49,1.3ZM55.7,263.74a14.09,14.09,0,0,0,2.19-.17,5,5,0,0,0,1.87-.69,3.69,3.69,0,0,0,1.31-1.45,5.32,5.32,0,0,0,.49-2.49,5.38,5.38,0,0,0-.49-2.49A3.76,3.76,0,0,0,59.76,255a4.86,4.86,0,0,0-1.87-.68,13,13,0,0,0-2.19-.18H51.25v9.6Z"/><path class="cls-1" d="M88.15,253.29l-.71.32A2.73,2.73,0,0,0,86,255.13l-8.47,19.81L69,255a2.7,2.7,0,0,0-1.63-1.59l-.35-.14h5l-.85.32a.91.91,0,0,0-.56,1.2l7.27,16.84,7.28-16.84a.92.92,0,0,0,0-.69,1,1,0,0,0-.5-.51l-.7-.32Z"/><path class="cls-1" d="M95.27,274.07a1.87,1.87,0,0,0,.86.69l.49.18h-5l.5-.18a1.92,1.92,0,0,0,1.2-1.77V255.2a1.92,1.92,0,0,0-1.2-1.77l-.5-.17h5l-.49.17a1.87,1.87,0,0,0-.86.69,1.8,1.8,0,0,0-.34,1.08V273A1.8,1.8,0,0,0,95.27,274.07Z"/><path class="cls-1" d="M111.81,254.24a10,10,0,0,0-7.08,2.85,9.45,9.45,0,0,0-2.14,3.16,10.53,10.53,0,0,0,0,8.05,9.57,9.57,0,0,0,5.38,5.15,10.42,10.42,0,0,0,3.8.71,10,10,0,0,0,1.71-.16,10.76,10.76,0,0,0,1.83-.49,8.1,8.1,0,0,0,1.66-.85,4.17,4.17,0,0,0,1.22-1.22l.57-.92v3.18l-.22-.39a.46.46,0,0,0-.42-.25.73.73,0,0,0-.25.07,10.45,10.45,0,0,1-2.89,1.4,10.85,10.85,0,0,1-3.21.48,13.06,13.06,0,0,1-4.82-.85,10.74,10.74,0,0,1-3.64-2.33,10.3,10.3,0,0,1-2.31-3.46,11.32,11.32,0,0,1,0-8.41,10.4,10.4,0,0,1,2.31-3.46,10.89,10.89,0,0,1,3.64-2.33,13.06,13.06,0,0,1,4.82-.84,11.18,11.18,0,0,1,3.21.47,10.73,10.73,0,0,1,2.89,1.4.56.56,0,0,0,.25.07.44.44,0,0,0,.42-.25l.22-.35v3.18l-.53-.89a4,4,0,0,0-1.2-1.23,7.93,7.93,0,0,0-1.72-.87,12.78,12.78,0,0,0-1.88-.51,9.29,9.29,0,0,0-1.7-.18Z"/><path class="cls-1" d="M125.91,274.07a1.85,1.85,0,0,0,.87.69l.49.18h-5l.49-.18a2,2,0,0,0,.87-.69A1.86,1.86,0,0,0,124,273V255.2a1.86,1.86,0,0,0-.33-1.08,2,2,0,0,0-.87-.69l-.49-.17h5l-.49.17a1.88,1.88,0,0,0-1.2,1.77V273A1.86,1.86,0,0,0,125.91,274.07Z"/><path class="cls-1" d="M146.32,254a10.78,10.78,0,0,1,3.58,2.06,10.27,10.27,0,0,1,2.51,3.39,11,11,0,0,1,1,4.68,10.83,10.83,0,0,1-1,4.66,10.19,10.19,0,0,1-2.51,3.37,10.64,10.64,0,0,1-3.58,2.07,12.84,12.84,0,0,1-8.42,0,10.54,10.54,0,0,1-3.6-2.07,10.06,10.06,0,0,1-2.51-3.37,10.69,10.69,0,0,1-1-4.66,10.87,10.87,0,0,1,1-4.68,10.14,10.14,0,0,1,2.51-3.39,10.68,10.68,0,0,1,3.6-2.06,12.84,12.84,0,0,1,8.42,0Zm-.25,19.26a9.23,9.23,0,0,0,3-2.14A9.37,9.37,0,0,0,151,268a11.28,11.28,0,0,0,0-7.66,9.08,9.08,0,0,0-5-5.3,10.47,10.47,0,0,0-8,0,9.08,9.08,0,0,0-5,5.3,11.28,11.28,0,0,0,0,7.66,9.37,9.37,0,0,0,1.92,3.16,9.23,9.23,0,0,0,3,2.14,10.47,10.47,0,0,0,8,0Z"/><path class="cls-1" d="M165,263l2.12,1.11a10.16,10.16,0,0,1,1.89,1.25,5.8,5.8,0,0,1,1.34,1.66,4.89,4.89,0,0,1,.51,2.33,4.27,4.27,0,0,1-.64,2.28,5.79,5.79,0,0,1-1.71,1.78,9,9,0,0,1-2.47,1.17,10,10,0,0,1-2.91.42,12.11,12.11,0,0,1-2.53-.3,6.86,6.86,0,0,1-2.84-1.47.37.37,0,0,0-.28-.1.42.42,0,0,0-.39.25l-.21.35v-3.18l.67,1.13a4.15,4.15,0,0,0,1.06,1.15,5.92,5.92,0,0,0,1.39.78,7.14,7.14,0,0,0,1.57.42,10.65,10.65,0,0,0,1.56.12,8.11,8.11,0,0,0,2.2-.3,6.22,6.22,0,0,0,1.93-.9,4.65,4.65,0,0,0,1.36-1.5,4.11,4.11,0,0,0,.51-2.06,2.45,2.45,0,0,0-.5-1.49,5.79,5.79,0,0,0-1.28-1.23,13.58,13.58,0,0,0-1.77-1.06c-.65-.33-1.29-.67-1.92-1l-2.16-1.14a15.39,15.39,0,0,1-2-1.26,6.75,6.75,0,0,1-1.49-1.48,3.17,3.17,0,0,1-.58-1.87,4.89,4.89,0,0,1,.53-2.26,5.15,5.15,0,0,1,1.45-1.73,6.82,6.82,0,0,1,2.21-1.09,9.57,9.57,0,0,1,2.8-.39,9.44,9.44,0,0,1,2.09.24,10.65,10.65,0,0,1,2,.71.56.56,0,0,0,.21,0,.37.37,0,0,0,.35-.22l.29-.45v3.17l-.39-.67a3.36,3.36,0,0,0-2-1.64,9.69,9.69,0,0,0-2.58-.34,7.85,7.85,0,0,0-2.08.27,5.58,5.58,0,0,0-1.69.74,4.17,4.17,0,0,0-1.14,1.11,2.54,2.54,0,0,0-.42,1.42,3,3,0,0,0,.58,1.85,6,6,0,0,0,1.45,1.34A13.33,13.33,0,0,0,163,262c.69.32,1.36.64,2,1Z"/><path class="cls-1" d="M190.8,274a2.13,2.13,0,0,0,1,.77l.56.22h-5.76l.57-.22a2.16,2.16,0,0,0,1-.77,2.05,2.05,0,0,0,.37-1.2V252.44a2.05,2.05,0,0,0-.37-1.2,2.16,2.16,0,0,0-1-.77l-.57-.22h5.76l-.56.22a2.1,2.1,0,0,0-1.35,2v20.31A2.13,2.13,0,0,0,190.8,274Z"/><path class="cls-1" d="M215.5,253.36l-.53.25a1.93,1.93,0,0,0-.79.71,1.74,1.74,0,0,0-.3,1V275l-15.5-19.74v17.79a1.75,1.75,0,0,0,.3,1,2,2,0,0,0,.79.71l.53.25h-4.09l.52-.25a2,2,0,0,0,.8-.71,1.75,1.75,0,0,0,.3-1V255.27a1.79,1.79,0,0,0-.3-1,2.11,2.11,0,0,0-.8-.71l-.52-.24H199L213,271.19v-16a1.79,1.79,0,0,0-.3-1,2,2,0,0,0-.8-.7l-.52-.25Z"/><path class="cls-1" d="M240.18,273.06a1.8,1.8,0,0,0,.34,1.08,1.87,1.87,0,0,0,.86.69l.49.18h-5l.49-.18a1.85,1.85,0,0,0,.87-.69,1.87,1.87,0,0,0,.34-1.08V255.13L230.05,275l-8.55-19.91v18a1.79,1.79,0,0,0,.3,1,2,2,0,0,0,.8.7l.53.25H219l.53-.25a2.08,2.08,0,0,0,.8-.7,1.88,1.88,0,0,0,.3-1v-17.8a1.88,1.88,0,0,0-.3-1,2.08,2.08,0,0,0-.8-.7l-.53-.25h3.57l7.87,18.33,7.84-18.33h3.56l-.49.18a1.87,1.87,0,0,0-.86.69,1.77,1.77,0,0,0-.34,1.07Z"/><path class="cls-1" d="M260.92,254a10.83,10.83,0,0,1,3.59,2.06,10.25,10.25,0,0,1,2.5,3.39,10.87,10.87,0,0,1,1,4.68,10.69,10.69,0,0,1-1,4.66,10.17,10.17,0,0,1-2.5,3.37,10.68,10.68,0,0,1-3.59,2.07,12.84,12.84,0,0,1-8.42,0,10.73,10.73,0,0,1-3.6-2.07,10.19,10.19,0,0,1-2.51-3.37,10.83,10.83,0,0,1-.95-4.66,11,11,0,0,1,.95-4.68,10.27,10.27,0,0,1,2.51-3.39,10.87,10.87,0,0,1,3.6-2.06,12.84,12.84,0,0,1,8.42,0Zm-.24,19.26a9.16,9.16,0,0,0,5-5.3,11.28,11.28,0,0,0,0-7.66,9.16,9.16,0,0,0-5-5.3,10.47,10.47,0,0,0-8,0,9.38,9.38,0,0,0-3,2.14,9.16,9.16,0,0,0-1.92,3.16,11.13,11.13,0,0,0,0,7.66,9.06,9.06,0,0,0,1.92,3.16,9.23,9.23,0,0,0,3,2.14,10.47,10.47,0,0,0,8,0Z"/><path class="cls-1" d="M283.89,263.14a7.1,7.1,0,0,1,3.44,2.1,5.72,5.72,0,0,1-1,8.07,10.42,10.42,0,0,1-6.2,1.63H271.5l.49-.18a1.89,1.89,0,0,0,.87-.69,1.86,1.86,0,0,0,.33-1.08V255.2a1.86,1.86,0,0,0-.33-1.08,1.89,1.89,0,0,0-.87-.69l-.49-.17h7.76a20.66,20.66,0,0,1,2.92.19,6.5,6.5,0,0,1,2.36.78,4.17,4.17,0,0,1,1.59,1.66,5.94,5.94,0,0,1,.58,2.84,4.51,4.51,0,0,1-.75,2.59,5.86,5.86,0,0,1-2,1.82Zm-9.11-9v8.69h5.12a12,12,0,0,0,1.94-.16,4.5,4.5,0,0,0,1.63-.62,3.45,3.45,0,0,0,1.13-1.26,4.36,4.36,0,0,0,.42-2.06,5.35,5.35,0,0,0-.41-2.23,3.71,3.71,0,0,0-1.11-1.41,4.29,4.29,0,0,0-1.62-.74,8.67,8.67,0,0,0-1.94-.21ZM280.64,274a10.08,10.08,0,0,0,2-.23,6.32,6.32,0,0,0,2.05-.83,4.71,4.71,0,0,0,2.23-4.2,4.38,4.38,0,0,0-1.7-3.91,8.18,8.18,0,0,0-4.62-1.14h-5.83V274Z"/><path class="cls-1" d="M295.77,274.07a1.85,1.85,0,0,0,.87.69l.49.18h-5l.49-.18a2,2,0,0,0,.87-.69,1.86,1.86,0,0,0,.33-1.08V255.2a1.86,1.86,0,0,0-.33-1.08,2,2,0,0,0-.87-.69l-.49-.17h5l-.49.17a1.88,1.88,0,0,0-1.2,1.77V273A1.86,1.86,0,0,0,295.77,274.07Z"/><path class="cls-1" d="M315.52,271.3l-1,3.6H300.62l.5-.18A1.87,1.87,0,0,0,302,274a1.75,1.75,0,0,0,.34-1.07v-17.8a1.75,1.75,0,0,0-.34-1.07,1.87,1.87,0,0,0-.86-.69l-.5-.18h5l-.5.18a1.87,1.87,0,0,0-.86.69,1.82,1.82,0,0,0-.34,1.07V274h8.3a2.71,2.71,0,0,0,2.37-1.24Z"/><path class="cls-1" d="M322.74,274.07a2,2,0,0,0,.87.69l.49.18h-5l.49-.18a1.88,1.88,0,0,0,1.2-1.77V255.2a1.88,1.88,0,0,0-1.2-1.77l-.49-.17h5l-.49.17a2,2,0,0,0-.87.69,1.86,1.86,0,0,0-.33,1.08V273A1.86,1.86,0,0,0,322.74,274.07Z"/><path class="cls-1" d="M344.54,274.62h-.07a.94.94,0,0,0,.55-.48.9.9,0,0,0,0-.72l-3.11-7.17H333.6l-3.11,7.17a.92.92,0,0,0,0,.69,1,1,0,0,0,.5.51l.7.32H327.6l.7-.32a2.71,2.71,0,0,0,1.42-1.52l8.47-19.81,8.54,19.91a2.65,2.65,0,0,0,1.63,1.59l.35.15h-5ZM334,265.37h7.59l-3.81-8.79Z"/><path class="cls-1" d="M369.47,274.9h-3.25l-5.15-9.43a1.5,1.5,0,0,0-1.38-.81h-5V273a1.8,1.8,0,0,0,.34,1.08,1.87,1.87,0,0,0,.86.69l.5.18h-5l.5-.18a1.87,1.87,0,0,0,.86-.69,1.8,1.8,0,0,0,.34-1.08V255.2a1.8,1.8,0,0,0-.34-1.08,1.87,1.87,0,0,0-.86-.69l-.5-.17h7.77a12.89,12.89,0,0,1,3.74.44,5.6,5.6,0,0,1,2.28,1.22,4.07,4.07,0,0,1,1.15,1.81,7.62,7.62,0,0,1,.32,2.21,8.25,8.25,0,0,1-.2,1.82,4.37,4.37,0,0,1-.7,1.59,4.61,4.61,0,0,1-1.4,1.25,6.87,6.87,0,0,1-2.26.78.85.85,0,0,1,.43.3,1.82,1.82,0,0,1,.24.4l.53,1c.21.37.44.79.67,1.23l.75,1.38.74,1.38c.56,1.06,1.16,2.16,1.8,3.32a2.78,2.78,0,0,0,1.48,1.3Zm-10.34-11.16a14.28,14.28,0,0,0,2.19-.17,5.1,5.1,0,0,0,1.87-.69,3.74,3.74,0,0,0,1.3-1.45,5.31,5.31,0,0,0,.5-2.49,5.37,5.37,0,0,0-.5-2.49,3.82,3.82,0,0,0-1.3-1.45,4.92,4.92,0,0,0-1.87-.68,13.12,13.12,0,0,0-2.19-.18h-4.45v9.6Z"/><path class="cls-1" d="M376.69,274.07a1.89,1.89,0,0,0,.87.69l.49.18h-5l.49-.18a1.89,1.89,0,0,0,.87-.69,1.86,1.86,0,0,0,.33-1.08V255.2a1.86,1.86,0,0,0-.33-1.08,1.89,1.89,0,0,0-.87-.69l-.49-.17h5l-.49.17a1.89,1.89,0,0,0-.87.69,1.86,1.86,0,0,0-.33,1.08V273A1.86,1.86,0,0,0,376.69,274.07Z"/><path class="cls-1" d="M397.1,254a10.78,10.78,0,0,1,3.58,2.06,10.27,10.27,0,0,1,2.51,3.39,11,11,0,0,1,.95,4.68,10.83,10.83,0,0,1-.95,4.66,10.19,10.19,0,0,1-2.51,3.37,10.64,10.64,0,0,1-3.58,2.07,12.84,12.84,0,0,1-8.42,0,10.54,10.54,0,0,1-3.6-2.07,10.19,10.19,0,0,1-2.51-3.37,10.69,10.69,0,0,1-.95-4.66,10.87,10.87,0,0,1,.95-4.68,10.27,10.27,0,0,1,2.51-3.39,10.68,10.68,0,0,1,3.6-2.06,12.84,12.84,0,0,1,8.42,0Zm-.25,19.26a9.23,9.23,0,0,0,3-2.14,9.37,9.37,0,0,0,1.92-3.16,11.28,11.28,0,0,0,0-7.66,9.08,9.08,0,0,0-5-5.3,9.8,9.8,0,0,0-4-.79,9.93,9.93,0,0,0-4,.79,9.23,9.23,0,0,0-3,2.14,9.33,9.33,0,0,0-1.93,3.16,11.28,11.28,0,0,0,0,7.66,9.24,9.24,0,0,0,1.93,3.16,9.09,9.09,0,0,0,3,2.14,9.76,9.76,0,0,0,4,.79A9.64,9.64,0,0,0,396.85,273.26Z"/><path class="cls-1" d="M415.76,263l2.12,1.11a10.16,10.16,0,0,1,1.89,1.25,5.8,5.8,0,0,1,1.34,1.66,4.89,4.89,0,0,1,.51,2.33,4.27,4.27,0,0,1-.64,2.28,5.79,5.79,0,0,1-1.71,1.78,9,9,0,0,1-2.47,1.17,10,10,0,0,1-2.91.42,12.11,12.11,0,0,1-2.53-.3,6.92,6.92,0,0,1-2.84-1.47.37.37,0,0,0-.28-.1.42.42,0,0,0-.39.25l-.21.35v-3.18l.67,1.13a4.3,4.3,0,0,0,1.06,1.15,5.92,5.92,0,0,0,1.39.78,7.14,7.14,0,0,0,1.57.42,10.75,10.75,0,0,0,1.56.12,8.11,8.11,0,0,0,2.2-.3,6.22,6.22,0,0,0,1.93-.9,4.65,4.65,0,0,0,1.36-1.5,4.11,4.11,0,0,0,.51-2.06,2.51,2.51,0,0,0-.49-1.49,5.64,5.64,0,0,0-1.29-1.23,13.58,13.58,0,0,0-1.77-1.06c-.65-.33-1.29-.67-1.92-1l-2.16-1.14a15.39,15.39,0,0,1-2-1.26,6.49,6.49,0,0,1-1.48-1.48,3.11,3.11,0,0,1-.59-1.87,4.89,4.89,0,0,1,.53-2.26,5.26,5.26,0,0,1,1.45-1.73,6.82,6.82,0,0,1,2.21-1.09,9.62,9.62,0,0,1,2.8-.39,9.44,9.44,0,0,1,2.09.24,10.65,10.65,0,0,1,2,.71.56.56,0,0,0,.21,0,.36.36,0,0,0,.35-.22l.29-.45v3.17l-.39-.67a3.36,3.36,0,0,0-2-1.64,9.69,9.69,0,0,0-2.58-.34,7.85,7.85,0,0,0-2.08.27,5.58,5.58,0,0,0-1.69.74,4,4,0,0,0-1.13,1.11,2.47,2.47,0,0,0-.43,1.42,3,3,0,0,0,.58,1.85,6.22,6.22,0,0,0,1.45,1.34A13.33,13.33,0,0,0,413.8,262c.69.32,1.36.64,2,1Z"/></svg>