<?xml version="1.0" encoding="utf-8"?>
<!-- Generator: Adobe Illustrator 25.4.1, SVG Export Plug-In . SVG Version: 6.00 Build 0)  -->
<svg version="1.1" id="Capa_1" xmlns="http://www.w3.org/2000/svg" xmlns:xlink="http://www.w3.org/1999/xlink" x="0px" y="0px"
	 viewBox="0 0 792 612" style="enable-background:new 0 0 792 612;" xml:space="preserve">
<style type="text/css">
	.st0{fill:#E2B572;}
	.st1{fill:url(#SVGID_1_);}
	.st2{fill:url(#SVGID_00000152956546482027438630000005249239446415955376_);}
	.st3{fill:#1E4761;}
	.st4{fill:#020203;}
	.st5{fill:#020304;}
	.st6{fill:#1F120D;}
	.st7{fill:#FFFFFF;}
</style>
<g>
	<g>
		<path class="st4" d="M376.47,294h-6.74c-1.36,0-2.48-1.11-2.48-2.48v-6.74c0-1.36,1.11-2.48,2.48-2.48h6.74
			c1.36,0,2.48,1.11,2.48,2.48v6.74C378.95,292.89,377.84,294,376.47,294z"/>
		<path class="st4" d="M391.07,294h-6.74c-1.36,0-2.48-1.11-2.48-2.48v-6.74c0-1.36,1.11-2.48,2.48-2.48h6.74
			c1.36,0,2.48,1.11,2.48,2.48v6.74C393.55,292.89,392.43,294,391.07,294z"/>
		<path class="st4" d="M391.07,308.82h-6.74c-1.36,0-2.48-1.11-2.48-2.48v-6.74c0-1.36,1.11-2.48,2.48-2.48h6.74
			c1.36,0,2.48,1.11,2.48,2.48v6.74C393.55,307.71,392.43,308.82,391.07,308.82z"/>
		<path class="st4" d="M376.7,308.82h-6.74c-1.36,0-2.48-1.11-2.48-2.48v-6.74c0-1.36,1.11-2.48,2.48-2.48h6.74
			c1.36,0,2.48,1.11,2.48,2.48v6.74C379.17,307.71,378.06,308.82,376.7,308.82z"/>
		<path class="st4" d="M506.23,250.96c0-51.48-41.39-93.21-92.46-93.21c-51.06,0-92.46,41.73-92.46,93.21
			c0,0.56,0.01,1.12,0.02,1.68l17.48-9.95c0.01-0.07,0.01-0.14,0.02-0.2l44.12-25.82l55.3,31.5v11.39l16.76,10.05l-0.05-30.58
			l-20.73-11.93v-16.14h-17.09v6.29l-33.03-19.02l-39.33,22.03c11.78-26.93,38.46-45.74,69.52-45.74c41.95,0,75.96,34.3,75.96,76.61
			c0,12.13-2.81,23.59-7.79,33.78l13.92,7.9C502.69,280.24,506.23,266.02,506.23,250.96z"/>
		<path class="st5" d="M478.74,298.27c-0.02,0.04-0.04,0.08-0.07,0.12l-95.51-54.43l-45.13,25.12c-0.41-3.21-0.64-6.47-0.64-9.79
			l-16.51,9.75c0.34,3.22,0.86,6.39,1.51,9.51l-36.56,21.11l8.17,14.16l33.31-19.23c13.85,33.88,46.91,57.73,85.51,57.73
			c34.04,0,63.77-18.54,79.82-46.15L478.74,298.27z M413.35,335.9c-31.83,0-60.56-21.21-71.86-49.22l42.21-23.93l84.55,49.46
			C454.42,326.8,434.95,335.9,413.35,335.9z"/>
		<circle class="st4" cx="382.6" cy="233.03" r="7.63"/>
	</g>
	<g>
		<path class="st4" d="M280.74,453.71c-5.21,1.92-10.48-1.26-13.83-11.16l-1.28-3.78h-9.07l-2.29,5.9c-0.48,1.32,0.4,2.08,1.26,2.08
			h0.29v0.33h-6.66v-0.33h0.3c0.96,0,2.13-0.56,2.81-1.9l8.19-19.66c-1.43-2.05-3.54-3.28-6.96-2.04l-0.09-0.33
			c7.75-3.28,10.07,3.05,11.71,7.7l4.03,11.43c1.87,5.3,5.56,12.74,11.57,11.45L280.74,453.71z M265.29,437.78l-2.61-7.71
			c-0.39-1.15-0.83-2.36-1.38-3.47l-4.35,11.18H265.29z"/>
		<path class="st4" d="M297.45,436.31c-1.07,0-1.67,0.54-1.65,1.5v5.47c-1.51,2-4.6,4.26-9.56,4.26
			c-7.03-0.03-11.89-4.84-11.89-12.04c0-7.22,4.85-12.04,11.88-12.04c3.64,0,6.07,0.98,8.02,2.23l0.67,4.67h-0.28
			c-1-3.78-4.03-5.91-8.4-5.91c-5.6,0-9.4,4.42-9.4,11.05c0,6.6,3.8,11.02,9.4,11.05c2.87,0,5.55-1.11,7.46-2.87v-5.86
			c0-0.97-0.63-1.51-1.7-1.51h-0.52v-0.33h6.48v0.33L297.45,436.31z"/>
		<path class="st4" d="M323.06,423.92v0.33h-0.54c-0.93,0-1.69,0.65-1.75,1.56v13.08c0,5.18-3.57,8.64-8.91,8.64
			c-5.5,0-9.17-3.43-9.17-8.58v-13.06c-0.02-0.95-0.79-1.64-1.75-1.64h-0.54v-0.33h6.72v0.33h-0.54c-0.94,0-1.7,0.66-1.74,1.59
			v12.62c0,4.82,2.81,8.03,7.02,8.03c4.42,0,7.36-3.04,7.37-7.6v-13.04c-0.04-0.93-0.81-1.59-1.75-1.59h-0.54v-0.33L323.06,423.92z"
			/>
		<path class="st4" d="M344.28,444.66c0.67,1.47,1.89,2.08,2.91,2.08h0.28v0.33h-7.45v-0.33h0.29c0.85,0,1.74-0.75,1.26-2.08
			l-2.12-5.63h-8.91l-2.22,5.65c-0.47,1.31,0.41,2.06,1.26,2.06h0.29v0.33h-6.66v-0.33h0.3c1.01,0,2.23-0.61,2.9-2.08l7.5-17.79
			c0,0,1.22-2.68,1.22-3.41h0.3L344.28,444.66z M339.07,438.04l-3.99-10.61l-4.16,10.61H339.07z"/>
		<path class="st4" d="M359.26,437.32c1.32,1.22,1.66,2.7,1.66,4.03c0,3.66-2.39,6.18-6.19,6.18c-1.62,0-4.3-0.46-5.6-1.81
			c-0.25-1.02-0.12-3.13,0.38-4.61h0.29c-0.33,3.41,1.83,5.59,4.77,5.42c2.41-0.13,4.43-1.79,4.43-4.43c0-1.29-0.47-2.31-1.3-3.08
			l-6.33-5.88c-1.34-1.22-1.79-2.82-1.79-4.1c0-2.79,2.04-5.59,5.81-5.59c0.87,0,1.96,0.15,2.84,0.34h1.31v4.06h-0.32
			c0.01-2.12-1.66-3.4-3.72-3.4c-2.44,0-4.07,1.79-4.07,3.8c0,0.86,0.29,2.08,1.33,3.05L359.26,437.32z"/>
		<path class="st4" d="M386.32,437.42l-0.4,5.19c-1.74,2.85-4.7,4.93-9.29,4.93c-6.91-0.03-11.81-4.76-11.81-12.07
			c0-7.17,4.73-12,12-12c3.24,0,5.89,0.96,7.82,2.23l0.67,4.67h-0.28c-1-3.86-4.25-5.91-8.22-5.91c-5.81,0-9.52,4.4-9.52,10.98
			c0,6.65,3.77,10.98,9.33,11.11c4.69-0.01,8.67-2.35,9.42-9.12H386.32z"/>
		<path class="st4" d="M408.69,444.66c0.67,1.47,1.89,2.08,2.91,2.08h0.28v0.33h-7.45v-0.33h0.29c0.85,0,1.74-0.75,1.26-2.08
			l-2.12-5.63h-8.91l-2.22,5.65c-0.47,1.31,0.41,2.06,1.26,2.06h0.29v0.33h-6.66v-0.33h0.3c1.01,0,2.23-0.61,2.9-2.08l7.5-17.79
			c0,0,1.22-2.68,1.22-3.41h0.3L408.69,444.66z M403.49,438.04l-3.99-10.61l-4.16,10.61H403.49z"/>
		<path class="st4" d="M429.13,441.73l-1.93,5.34h-13.71l0.01-0.33h0.42c1.16,0,2.1-0.93,2.12-2.08v-18.33
			c-0.02-1.15-0.96-2.08-2.12-2.08h-0.42l0-0.33h7.23l0,0.33h-0.42c-1.16,0-2.1,0.93-2.12,2.08v19.72h4.74
			c3.5,0,4.85-1.81,5.87-4.33L429.13,441.73z"/>
		<path class="st4" d="M438.81,447.07h-7.23l0.01-0.33H432c1.16,0,2.1-0.93,2.12-2.08v-18.34c-0.03-1.15-0.96-2.07-2.12-2.07h-0.42
			l0-0.33h7.23l0,0.33h-0.42c-1.15,0-2.09,0.92-2.12,2.06v18.35c0.02,1.15,0.96,2.08,2.12,2.08h0.42L438.81,447.07z"/>
		<path class="st4" d="M458.39,441.73l-1.93,5.34h-13.71l0.01-0.33h0.42c1.16,0,2.1-0.93,2.12-2.08v-18.51
			c0-1.06-1.01-1.89-2.11-1.89h-0.42l-0.01-0.33h9.66c1.43-0.01,3.33-0.34,3.94-0.6v0.97v0.55v2.65l-0.33,0v-0.59
			c0-1.05-0.82-1.91-1.85-1.97h-6.74v10.22h5.59c0.89-0.02,1.6-0.74,1.6-1.63v-0.49l0.32,0v5.23l-0.32,0v-0.49
			c0-0.88-0.69-1.59-1.56-1.63h-5.62v9.91h4.74c3.5,0,4.85-1.81,5.87-4.33L458.39,441.73z"/>
		<path class="st4" d="M486.18,423.92l0,0.33h-0.61c-1.11,0-2.01,0.88-2.04,1.98v17.08c0,2.13,0.3,4.22,0.3,4.22h-0.3L465.5,428.3
			v16.46c0.03,1.1,0.93,1.98,2.04,1.98h0.61l0.01,0.33h-6.81l0-0.33h0.61c1.11,0,2.02-0.89,2.04-2v-17.18c0-2.26-0.3-4.13-0.3-4.13
			h0.33l18.01,19.23v-16.4c-0.02-1.11-0.92-2-2.04-2h-0.61l0-0.33H486.18z"/>
		<path class="st4" d="M503.47,423.89c1.43-0.01,3.36-0.34,3.98-0.6v4.16l-0.33,0v-0.59c0-1.06-0.84-1.92-1.89-1.97h-6.27v19.81
			c0.04,1.14,0.97,2.05,2.12,2.05h0.42l0.01,0.33h-7.24l0-0.33h0.42c1.14,0,2.07-0.9,2.12-2.03v-19.83h-6.27
			c-1.05,0.05-1.89,0.91-1.89,1.97v0.59l-0.33,0v-4.16c0.62,0.26,2.55,0.59,3.98,0.6H503.47z"/>
		<path class="st4" d="M525.72,441.73l-1.93,5.34h-13.71l0.01-0.33h0.42c1.16,0,2.1-0.93,2.12-2.08v-18.51
			c0-1.06-1.01-1.89-2.11-1.89h-0.42l-0.01-0.33h9.66c1.43-0.01,3.33-0.34,3.94-0.6v0.97v0.55v2.65l-0.33,0v-0.59
			c0-1.05-0.82-1.91-1.85-1.97h-6.74v10.22h5.59c0.89-0.02,1.6-0.74,1.6-1.63v-0.49l0.32,0v5.23l-0.32,0v-0.49
			c0-0.88-0.69-1.59-1.57-1.63h-5.62v9.91h4.74c3.5,0,4.85-1.81,5.87-4.33L525.72,441.73z"/>
		<path class="st4" d="M539.34,437.32c1.32,1.22,1.66,2.7,1.66,4.03c0,3.66-2.39,6.18-6.19,6.18c-1.62,0-4.3-0.46-5.6-1.81
			c-0.25-1.02-0.12-3.13,0.38-4.61h0.29c-0.33,3.41,1.83,5.59,4.77,5.42c2.41-0.13,4.43-1.79,4.43-4.43c0-1.29-0.47-2.31-1.3-3.08
			l-6.33-5.88c-1.34-1.22-1.79-2.82-1.79-4.1c0-2.79,2.04-5.59,5.81-5.59c0.87,0,1.96,0.15,2.84,0.34h1.31v4.06h-0.32
			c0.01-2.12-1.66-3.4-3.72-3.4c-2.44,0-4.07,1.79-4.07,3.8c0,0.86,0.29,2.08,1.33,3.05L539.34,437.32z"/>
	</g>
	<g>
		<path class="st6" d="M211.99,389.89c0.77,0.42,1.53,0.83,2.27,1.22c0.74,0.4,1.41,0.85,2,1.36c0.6,0.51,1.07,1.1,1.44,1.77
			c0.36,0.67,0.55,1.51,0.55,2.5c0,0.88-0.23,1.69-0.68,2.43c-0.45,0.74-1.06,1.37-1.82,1.9c-0.76,0.53-1.64,0.94-2.64,1.24
			c-1,0.3-2.05,0.45-3.13,0.45c-0.82,0-1.71-0.11-2.7-0.33c-0.98-0.22-1.99-0.74-3.03-1.55c-0.09-0.07-0.2-0.1-0.33-0.1
			c-0.2,0-0.34,0.08-0.43,0.23l-0.23,0.36v-3.41l0.73,1.22c0.29,0.48,0.66,0.9,1.12,1.24c0.46,0.34,0.96,0.62,1.51,0.83
			c0.54,0.21,1.1,0.36,1.69,0.45c0.58,0.09,1.14,0.13,1.67,0.13c0.82,0,1.61-0.11,2.38-0.33c0.77-0.22,1.46-0.55,2.05-0.98
			c0.6-0.43,1.07-0.96,1.44-1.59c0.36-0.63,0.55-1.36,0.55-2.2c0-0.6-0.18-1.13-0.53-1.6c-0.35-0.47-0.81-0.91-1.37-1.32
			c-0.56-0.41-1.2-0.79-1.9-1.16c-0.71-0.36-1.4-0.72-2.08-1.07c-0.75-0.4-1.52-0.8-2.3-1.21c-0.78-0.41-1.49-0.85-2.13-1.32
			c-0.64-0.47-1.17-1-1.59-1.59c-0.42-0.58-0.63-1.25-0.63-2c0-0.88,0.19-1.68,0.56-2.4c0.37-0.72,0.89-1.33,1.55-1.83
			c0.66-0.51,1.45-0.9,2.38-1.17s1.93-0.41,3.01-0.41c0.73,0,1.47,0.09,2.23,0.26c0.76,0.18,1.48,0.42,2.17,0.73
			c0.04,0.02,0.11,0.03,0.2,0.03c0.2,0,0.34-0.08,0.43-0.23l0.3-0.5v3.41l-0.43-0.69c-0.27-0.46-0.58-0.83-0.94-1.11
			c-0.36-0.28-0.76-0.48-1.19-0.63c-0.43-0.14-0.88-0.24-1.36-0.3c-0.47-0.05-0.95-0.08-1.44-0.08c-0.79,0-1.54,0.09-2.23,0.28
			c-0.69,0.19-1.3,0.45-1.8,0.79c-0.51,0.34-0.91,0.74-1.21,1.21c-0.3,0.46-0.45,0.97-0.45,1.52c0,0.79,0.2,1.46,0.61,2
			c0.41,0.54,0.92,1.02,1.54,1.44c0.62,0.42,1.3,0.79,2.05,1.12c0.75,0.33,1.46,0.67,2.12,1.03L211.99,389.89z"/>
		<path class="st6" d="M235.43,399.41l-0.93,3.37h-13.03l0.46-0.16c0.33-0.13,0.6-0.35,0.81-0.64c0.21-0.3,0.31-0.63,0.31-1.01
			V384.3c0-0.37-0.1-0.71-0.31-1.01c-0.21-0.3-0.48-0.51-0.81-0.64l-0.46-0.17h12.5l0.17,2.55l-0.43-0.79
			c-0.15-0.29-0.37-0.51-0.64-0.68c-0.28-0.16-0.57-0.25-0.88-0.25h-7.57v8.6h4.86c0.35,0,0.67-0.09,0.96-0.28
			c0.29-0.19,0.51-0.43,0.66-0.74l0.2-0.4v3.47l-0.2-0.4c-0.15-0.31-0.37-0.56-0.66-0.74c-0.29-0.19-0.61-0.28-0.96-0.28h-4.86v9.39
			h7.77c0.95,0,1.69-0.39,2.22-1.16L235.43,399.41z"/>
		<path class="st6" d="M255.73,402.75h-3.04l-4.83-8.83c-0.29-0.51-0.72-0.76-1.29-0.76h-4.66v7.8c0,0.37,0.1,0.71,0.31,1.01
			c0.21,0.3,0.48,0.51,0.81,0.64l0.46,0.16h-4.69l0.46-0.16c0.33-0.13,0.6-0.35,0.81-0.64c0.21-0.3,0.31-0.63,0.31-1.01V384.3
			c0-0.37-0.1-0.71-0.31-1.01c-0.21-0.3-0.48-0.51-0.81-0.64l-0.46-0.17h7.27c1.43,0,2.6,0.14,3.51,0.41
			c0.9,0.28,1.61,0.66,2.13,1.14c0.52,0.49,0.88,1.05,1.07,1.7c0.2,0.65,0.3,1.34,0.3,2.07c0,0.6-0.06,1.16-0.18,1.7
			c-0.12,0.54-0.34,1.04-0.66,1.49c-0.32,0.45-0.76,0.84-1.31,1.17c-0.55,0.33-1.26,0.57-2.12,0.73c0.15,0.04,0.29,0.14,0.4,0.28
			s0.19,0.27,0.23,0.38c0.13,0.24,0.3,0.54,0.5,0.89s0.41,0.74,0.63,1.16c0.22,0.42,0.45,0.85,0.69,1.29
			c0.24,0.44,0.47,0.87,0.69,1.29c0.53,0.99,1.09,2.03,1.69,3.11c0.31,0.57,0.77,0.98,1.39,1.22L255.73,402.75z M246.05,392.3
			c0.7,0,1.39-0.06,2.05-0.16c0.66-0.11,1.25-0.33,1.75-0.64c0.51-0.32,0.91-0.77,1.22-1.36c0.31-0.58,0.46-1.36,0.46-2.33
			c0-0.97-0.15-1.75-0.46-2.33c-0.31-0.58-0.72-1.04-1.22-1.36c-0.51-0.32-1.09-0.54-1.75-0.64c-0.66-0.11-1.34-0.17-2.05-0.17
			h-4.17v8.99H246.05z"/>
		<path class="st6" d="M276.43,382.52l-0.66,0.3c-0.64,0.31-1.08,0.78-1.32,1.42l-7.94,18.55l-8-18.65
			c-0.27-0.71-0.77-1.2-1.52-1.49l-0.33-0.13h4.69l-0.79,0.3c-0.24,0.09-0.41,0.24-0.51,0.45c-0.1,0.21-0.1,0.44-0.02,0.68
			l6.81,15.77l6.81-15.77c0.09-0.22,0.09-0.43,0-0.64c-0.09-0.21-0.24-0.37-0.46-0.48l-0.66-0.3H276.43z"/>
		<path class="st6" d="M283.1,401.98c0.21,0.3,0.48,0.51,0.81,0.64l0.46,0.16h-4.69l0.46-0.16c0.33-0.13,0.6-0.35,0.81-0.64
			c0.21-0.3,0.31-0.63,0.31-1.01V384.3c0-0.37-0.1-0.71-0.31-1.01c-0.21-0.3-0.48-0.51-0.81-0.64l-0.46-0.17h4.69l-0.46,0.17
			c-0.33,0.13-0.6,0.35-0.81,0.64s-0.31,0.63-0.31,1.01v16.67C282.78,401.34,282.89,401.68,283.1,401.98z"/>
		<path class="st6" d="M298.59,383.41c-1.3,0-2.52,0.24-3.65,0.71c-1.14,0.47-2.13,1.12-2.98,1.95c-0.85,0.83-1.52,1.81-2,2.96
			c-0.49,1.15-0.73,2.38-0.73,3.7c0,1.41,0.25,2.69,0.76,3.84c0.51,1.15,1.19,2.13,2.05,2.94c0.86,0.82,1.86,1.45,2.99,1.89
			c1.13,0.44,2.32,0.66,3.55,0.66c0.49,0,1.02-0.05,1.6-0.15c0.58-0.1,1.16-0.25,1.72-0.46c0.56-0.21,1.08-0.47,1.55-0.79
			s0.85-0.7,1.14-1.14l0.53-0.86v2.98l-0.2-0.36c-0.09-0.15-0.22-0.23-0.4-0.23c-0.07,0-0.14,0.02-0.23,0.07
			c-0.84,0.57-1.74,1.01-2.71,1.31c-0.97,0.3-1.97,0.45-3.01,0.45c-1.68,0-3.18-0.26-4.51-0.79c-1.33-0.53-2.47-1.26-3.41-2.18
			c-0.94-0.93-1.66-2.01-2.17-3.24c-0.51-1.23-0.76-2.55-0.76-3.93c0-1.39,0.25-2.7,0.76-3.93c0.51-1.23,1.23-2.31,2.17-3.24
			c0.94-0.93,2.07-1.65,3.41-2.18c1.33-0.53,2.84-0.79,4.51-0.79c1.04,0,2.04,0.15,3.01,0.45c0.97,0.3,1.87,0.73,2.71,1.31
			c0.09,0.04,0.16,0.07,0.23,0.07c0.18,0,0.31-0.08,0.4-0.23l0.2-0.33v2.98l-0.5-0.83c-0.26-0.44-0.64-0.83-1.12-1.16
			c-0.48-0.33-1.02-0.6-1.6-0.81c-0.58-0.21-1.17-0.37-1.77-0.48c-0.6-0.11-1.12-0.16-1.59-0.16L298.59,383.41z"/>
		<path class="st6" d="M311.8,401.98c0.21,0.3,0.48,0.51,0.81,0.64l0.46,0.16h-4.69l0.46-0.16c0.33-0.13,0.6-0.35,0.81-0.64
			c0.21-0.3,0.31-0.63,0.31-1.01V384.3c0-0.37-0.1-0.71-0.31-1.01c-0.21-0.3-0.48-0.51-0.81-0.64l-0.46-0.17h4.69l-0.46,0.17
			c-0.33,0.13-0.6,0.35-0.81,0.64c-0.21,0.3-0.31,0.63-0.31,1.01v16.67C311.48,401.34,311.59,401.68,311.8,401.98z"/>
		<path class="st6" d="M330.91,383.18c1.27,0.44,2.39,1.09,3.36,1.93c0.97,0.85,1.75,1.91,2.35,3.17c0.6,1.27,0.89,2.73,0.89,4.38
			c0,1.65-0.3,3.11-0.89,4.37c-0.6,1.26-1.38,2.31-2.35,3.16c-0.97,0.85-2.09,1.49-3.36,1.94c-1.27,0.44-2.58,0.66-3.95,0.66
			c-1.35,0-2.66-0.22-3.93-0.66c-1.28-0.44-2.4-1.09-3.37-1.94c-0.97-0.85-1.75-1.9-2.35-3.16c-0.6-1.26-0.89-2.71-0.89-4.37
			c0-1.65,0.3-3.11,0.89-4.38c0.6-1.27,1.38-2.32,2.35-3.17c0.97-0.85,2.09-1.49,3.37-1.93c1.28-0.44,2.59-0.66,3.93-0.66
			C328.32,382.52,329.64,382.74,330.91,383.18z M330.68,401.21c1.11-0.5,2.06-1.16,2.84-2c0.78-0.84,1.38-1.82,1.8-2.96
			c0.42-1.13,0.63-2.33,0.63-3.59c0-1.26-0.21-2.45-0.63-3.59c-0.42-1.13-1.02-2.12-1.8-2.96c-0.78-0.84-1.73-1.5-2.84-2
			c-1.11-0.5-2.35-0.74-3.72-0.74c-1.39,0-2.64,0.25-3.75,0.74s-2.06,1.16-2.84,2c-0.78,0.84-1.38,1.82-1.8,2.96
			c-0.42,1.14-0.63,2.33-0.63,3.59c0,1.26,0.21,2.45,0.63,3.59c0.42,1.14,1.02,2.12,1.8,2.96c0.78,0.84,1.73,1.51,2.84,2
			s2.36,0.74,3.75,0.74C328.32,401.96,329.56,401.71,330.68,401.21z"/>
		<path class="st6" d="M348.38,391.58c0.66,0.35,1.32,0.7,1.98,1.04c0.66,0.34,1.25,0.73,1.77,1.17c0.52,0.44,0.94,0.96,1.26,1.55
			c0.32,0.6,0.48,1.32,0.48,2.18c0,0.77-0.2,1.48-0.6,2.13c-0.4,0.65-0.93,1.21-1.6,1.67c-0.67,0.46-1.44,0.83-2.31,1.09
			c-0.87,0.26-1.78,0.4-2.73,0.4c-0.71,0-1.49-0.09-2.36-0.28c-0.87-0.19-1.76-0.64-2.66-1.37c-0.07-0.07-0.15-0.1-0.27-0.1
			c-0.15,0-0.28,0.08-0.36,0.23l-0.2,0.33v-2.98l0.63,1.06c0.26,0.42,0.6,0.78,0.99,1.07s0.83,0.54,1.31,0.73
			c0.47,0.19,0.96,0.32,1.47,0.4c0.51,0.08,0.99,0.12,1.46,0.12c0.7,0,1.39-0.09,2.07-0.28c0.67-0.19,1.27-0.47,1.8-0.84
			c0.53-0.37,0.95-0.84,1.27-1.41c0.32-0.56,0.48-1.21,0.48-1.93c0-0.51-0.15-0.97-0.46-1.39c-0.31-0.42-0.71-0.8-1.21-1.16
			c-0.5-0.35-1.05-0.68-1.65-0.99c-0.61-0.31-1.21-0.63-1.8-0.96c-0.66-0.35-1.33-0.71-2.02-1.07c-0.68-0.36-1.31-0.76-1.87-1.17
			c-0.56-0.42-1.03-0.88-1.39-1.39c-0.36-0.51-0.55-1.09-0.55-1.75c0-0.77,0.16-1.48,0.5-2.12c0.33-0.64,0.78-1.18,1.36-1.62
			c0.57-0.44,1.26-0.78,2.07-1.03c0.8-0.24,1.68-0.36,2.63-0.36c0.64,0,1.29,0.08,1.95,0.23c0.66,0.15,1.29,0.38,1.89,0.66
			c0.04,0.02,0.11,0.03,0.2,0.03c0.15,0,0.26-0.07,0.33-0.2l0.27-0.43v2.98l-0.36-0.63c-0.48-0.81-1.1-1.33-1.85-1.54
			c-0.75-0.21-1.55-0.31-2.41-0.31c-0.68,0-1.33,0.08-1.95,0.25c-0.62,0.16-1.15,0.4-1.59,0.69c-0.44,0.3-0.79,0.64-1.06,1.04
			c-0.26,0.4-0.4,0.84-0.4,1.32c0,0.68,0.18,1.26,0.55,1.74c0.36,0.48,0.82,0.89,1.36,1.26c0.54,0.36,1.13,0.69,1.79,0.99
			c0.65,0.3,1.27,0.6,1.87,0.91L348.38,391.58z"/>
		<path class="st6" d="M372.57,401.86c0.23,0.33,0.53,0.57,0.91,0.73l0.53,0.2h-5.39l0.53-0.2c0.37-0.15,0.68-0.4,0.91-0.73
			s0.35-0.7,0.35-1.12v-19.01c0-0.42-0.12-0.79-0.35-1.12c-0.23-0.33-0.54-0.57-0.91-0.73l-0.53-0.2h5.39l-0.53,0.2
			c-0.38,0.15-0.68,0.4-0.91,0.73c-0.23,0.33-0.35,0.71-0.35,1.12v19.01C372.22,401.15,372.34,401.53,372.57,401.86z"/>
		<path class="st6" d="M395.7,382.58l-0.5,0.23c-0.31,0.15-0.56,0.37-0.74,0.66c-0.19,0.29-0.28,0.6-0.28,0.92v18.45l-14.52-18.48
			v16.66c0,0.33,0.09,0.64,0.28,0.93c0.19,0.29,0.44,0.51,0.74,0.66l0.5,0.23h-3.84l0.5-0.23c0.31-0.15,0.56-0.37,0.74-0.66
			c0.19-0.29,0.28-0.6,0.28-0.93v-16.66c0-0.33-0.09-0.64-0.28-0.93c-0.19-0.29-0.44-0.51-0.74-0.66l-0.5-0.23h2.88l13.16,16.73
			v-14.95c0-0.33-0.09-0.64-0.28-0.93c-0.19-0.29-0.44-0.51-0.74-0.66l-0.5-0.23L395.7,382.58z"/>
		<path class="st6" d="M418.81,401.03c0,0.38,0.1,0.71,0.31,1.01c0.21,0.3,0.48,0.51,0.81,0.64l0.46,0.16h-4.69l0.46-0.16
			c0.33-0.13,0.6-0.35,0.81-0.64c0.21-0.3,0.31-0.63,0.31-1.01v-16.8l-7.97,18.58l-8-18.65V401c0,0.33,0.09,0.64,0.28,0.93
			c0.19,0.29,0.44,0.51,0.74,0.66l0.5,0.23h-3.84l0.5-0.23c0.31-0.15,0.56-0.37,0.74-0.66c0.19-0.29,0.28-0.6,0.28-0.93v-16.67
			c0-0.33-0.09-0.64-0.28-0.93c-0.19-0.29-0.44-0.51-0.74-0.66l-0.5-0.23h3.34l7.37,17.16l7.34-17.16h3.34l-0.46,0.16
			c-0.33,0.13-0.6,0.35-0.81,0.65c-0.21,0.3-0.31,0.63-0.31,1.01V401.03z"/>
		<path class="st6" d="M438.24,383.18c1.27,0.44,2.39,1.09,3.36,1.93c0.97,0.85,1.75,1.91,2.35,3.17c0.6,1.27,0.89,2.73,0.89,4.38
			c0,1.65-0.3,3.11-0.89,4.37c-0.6,1.26-1.38,2.31-2.35,3.16c-0.97,0.85-2.09,1.49-3.36,1.94c-1.27,0.44-2.58,0.66-3.95,0.66
			c-1.35,0-2.66-0.22-3.93-0.66c-1.28-0.44-2.4-1.09-3.37-1.94c-0.97-0.85-1.75-1.9-2.35-3.16c-0.6-1.26-0.89-2.71-0.89-4.37
			c0-1.65,0.3-3.11,0.89-4.38c0.6-1.27,1.38-2.32,2.35-3.17c0.97-0.85,2.09-1.49,3.37-1.93c1.28-0.44,2.59-0.66,3.93-0.66
			C435.66,382.52,436.97,382.74,438.24,383.18z M438.01,401.21c1.11-0.5,2.06-1.16,2.84-2c0.78-0.84,1.38-1.82,1.8-2.96
			c0.42-1.13,0.63-2.33,0.63-3.59c0-1.26-0.21-2.45-0.63-3.59c-0.42-1.13-1.02-2.12-1.8-2.96c-0.78-0.84-1.73-1.5-2.84-2
			s-2.35-0.74-3.72-0.74c-1.39,0-2.64,0.25-3.75,0.74c-1.11,0.5-2.06,1.16-2.84,2c-0.78,0.84-1.38,1.82-1.8,2.96
			c-0.42,1.14-0.63,2.33-0.63,3.59c0,1.26,0.21,2.45,0.63,3.59c0.42,1.14,1.02,2.12,1.8,2.96c0.78,0.84,1.73,1.51,2.84,2
			c1.11,0.5,2.36,0.74,3.75,0.74C435.66,401.96,436.9,401.71,438.01,401.21z"/>
		<path class="st6" d="M459.75,391.74c1.39,0.42,2.46,1.07,3.22,1.97c0.76,0.89,1.14,2,1.14,3.32c0,1.81-0.7,3.22-2.1,4.23
			c-1.4,1.01-3.34,1.52-5.8,1.52h-8.07l0.46-0.16c0.33-0.13,0.6-0.35,0.81-0.64c0.21-0.3,0.31-0.63,0.31-1.01V384.3
			c0-0.37-0.1-0.71-0.31-1.01c-0.21-0.3-0.48-0.51-0.81-0.64l-0.46-0.17h7.27c0.97,0,1.88,0.06,2.73,0.18
			c0.85,0.12,1.59,0.36,2.22,0.73c0.63,0.36,1.12,0.88,1.49,1.55c0.36,0.67,0.55,1.56,0.55,2.66c0,0.92-0.24,1.74-0.71,2.43
			c-0.47,0.69-1.11,1.26-1.9,1.7H459.75z M451.22,383.31v8.14h4.8c0.64,0,1.24-0.05,1.82-0.15s1.08-0.29,1.52-0.58
			c0.44-0.29,0.79-0.68,1.06-1.17s0.4-1.14,0.4-1.93c0-0.84-0.13-1.53-0.38-2.08c-0.25-0.55-0.6-0.99-1.04-1.32
			c-0.44-0.33-0.95-0.56-1.52-0.69c-0.57-0.13-1.18-0.2-1.82-0.2H451.22z M456.71,401.93c0.57,0,1.2-0.07,1.88-0.22
			c0.68-0.14,1.32-0.4,1.92-0.78c0.6-0.37,1.09-0.88,1.49-1.52c0.4-0.64,0.6-1.44,0.6-2.41c0-1.72-0.53-2.94-1.59-3.65
			c-1.06-0.72-2.5-1.07-4.33-1.07h-5.46v9.66H456.71z"/>
		<path class="st6" d="M470.88,401.98c0.21,0.3,0.48,0.51,0.81,0.64l0.46,0.16h-4.69l0.46-0.16c0.33-0.13,0.6-0.35,0.81-0.64
			c0.21-0.3,0.31-0.63,0.31-1.01V384.3c0-0.37-0.1-0.71-0.31-1.01c-0.21-0.3-0.48-0.51-0.81-0.64l-0.46-0.17h4.69l-0.46,0.17
			c-0.33,0.13-0.6,0.35-0.81,0.64c-0.21,0.3-0.31,0.63-0.31,1.01v16.67C470.56,401.34,470.67,401.68,470.88,401.98z"/>
		<path class="st6" d="M489.38,399.38l-0.93,3.37h-13.03l0.46-0.16c0.33-0.13,0.6-0.35,0.81-0.64c0.21-0.3,0.31-0.63,0.31-1.01
			v-16.66c0-0.37-0.1-0.71-0.31-1.01c-0.21-0.3-0.48-0.51-0.81-0.64l-0.46-0.16h4.69l-0.46,0.16c-0.33,0.13-0.6,0.35-0.81,0.64
			c-0.21,0.3-0.31,0.63-0.31,1.01v17.66h7.77c0.95,0,1.69-0.39,2.22-1.16L489.38,399.38z"/>
		<path class="st6" d="M496.14,401.98c0.21,0.3,0.48,0.51,0.81,0.64l0.46,0.16h-4.69l0.46-0.16c0.33-0.13,0.6-0.35,0.81-0.64
			c0.21-0.3,0.31-0.63,0.31-1.01V384.3c0-0.37-0.1-0.71-0.31-1.01c-0.21-0.3-0.48-0.51-0.81-0.64l-0.46-0.17h4.69l-0.46,0.17
			c-0.33,0.13-0.6,0.35-0.81,0.64c-0.21,0.3-0.31,0.63-0.31,1.01v16.67C495.83,401.34,495.93,401.68,496.14,401.98z"/>
		<path class="st6" d="M516.56,402.49h-0.07c0.24-0.09,0.41-0.24,0.51-0.45s0.1-0.43,0.02-0.68l-2.91-6.71h-7.8l-2.91,6.71
			c-0.09,0.22-0.09,0.44,0,0.64c0.09,0.21,0.24,0.37,0.46,0.48l0.66,0.3h-3.84l0.66-0.3c0.64-0.31,1.08-0.78,1.32-1.42l7.94-18.55
			l8,18.65c0.27,0.71,0.77,1.2,1.52,1.49l0.33,0.13h-4.7L516.56,402.49z M506.64,393.82h7.11l-3.57-8.23L506.64,393.82z"/>
		<path class="st6" d="M539.9,402.75h-3.04l-4.83-8.83c-0.29-0.51-0.72-0.76-1.29-0.76h-4.66v7.8c0,0.37,0.1,0.71,0.31,1.01
			c0.21,0.3,0.48,0.51,0.81,0.64l0.46,0.16h-4.69l0.46-0.16c0.33-0.13,0.6-0.35,0.81-0.64c0.21-0.3,0.31-0.63,0.31-1.01V384.3
			c0-0.37-0.1-0.71-0.31-1.01c-0.21-0.3-0.48-0.51-0.81-0.64l-0.46-0.17h7.27c1.43,0,2.6,0.14,3.51,0.41
			c0.9,0.28,1.61,0.66,2.13,1.14c0.52,0.49,0.88,1.05,1.07,1.7c0.2,0.65,0.3,1.34,0.3,2.07c0,0.6-0.06,1.16-0.18,1.7
			c-0.12,0.54-0.34,1.04-0.66,1.49c-0.32,0.45-0.76,0.84-1.31,1.17c-0.55,0.33-1.26,0.57-2.12,0.73c0.15,0.04,0.29,0.14,0.4,0.28
			s0.19,0.27,0.23,0.38c0.13,0.24,0.3,0.54,0.5,0.89c0.2,0.35,0.41,0.74,0.63,1.16c0.22,0.42,0.45,0.85,0.69,1.29
			c0.24,0.44,0.47,0.87,0.69,1.29c0.53,0.99,1.09,2.03,1.69,3.11c0.31,0.57,0.77,0.98,1.39,1.22L539.9,402.75z M530.21,392.3
			c0.7,0,1.39-0.06,2.05-0.16c0.66-0.11,1.25-0.33,1.75-0.64c0.51-0.32,0.91-0.77,1.22-1.36c0.31-0.58,0.46-1.36,0.46-2.33
			c0-0.97-0.15-1.75-0.46-2.33c-0.31-0.58-0.72-1.04-1.22-1.36c-0.51-0.32-1.09-0.54-1.75-0.64c-0.66-0.11-1.34-0.17-2.05-0.17
			h-4.17v8.99H530.21z"/>
		<path class="st6" d="M546.66,401.98c0.21,0.3,0.48,0.51,0.81,0.64l0.46,0.16h-4.69l0.46-0.16c0.33-0.13,0.6-0.35,0.81-0.64
			c0.21-0.3,0.31-0.63,0.31-1.01V384.3c0-0.37-0.1-0.71-0.31-1.01c-0.21-0.3-0.48-0.51-0.81-0.64l-0.46-0.17h4.69l-0.46,0.17
			c-0.33,0.13-0.6,0.35-0.81,0.64c-0.21,0.3-0.31,0.63-0.31,1.01v16.67C546.35,401.34,546.45,401.68,546.66,401.98z"/>
		<path class="st6" d="M565.78,383.18c1.27,0.44,2.39,1.09,3.36,1.93c0.97,0.85,1.75,1.91,2.35,3.17c0.6,1.27,0.89,2.73,0.89,4.38
			c0,1.65-0.3,3.11-0.89,4.37c-0.6,1.26-1.38,2.31-2.35,3.16c-0.97,0.85-2.09,1.49-3.36,1.94c-1.27,0.44-2.58,0.66-3.95,0.66
			c-1.35,0-2.66-0.22-3.93-0.66c-1.28-0.44-2.4-1.09-3.37-1.94c-0.97-0.85-1.75-1.9-2.35-3.16c-0.6-1.26-0.89-2.71-0.89-4.37
			c0-1.65,0.3-3.11,0.89-4.38c0.6-1.27,1.38-2.32,2.35-3.17c0.97-0.85,2.09-1.49,3.37-1.93c1.28-0.44,2.59-0.66,3.93-0.66
			C563.19,382.52,564.51,382.74,565.78,383.18z M565.54,401.21c1.11-0.5,2.06-1.16,2.84-2c0.78-0.84,1.38-1.82,1.8-2.96
			c0.42-1.13,0.63-2.33,0.63-3.59c0-1.26-0.21-2.45-0.63-3.59c-0.42-1.13-1.02-2.12-1.8-2.96c-0.78-0.84-1.73-1.5-2.84-2
			c-1.11-0.5-2.35-0.74-3.72-0.74c-1.39,0-2.64,0.25-3.75,0.74s-2.06,1.16-2.84,2c-0.78,0.84-1.38,1.82-1.8,2.96
			c-0.42,1.14-0.63,2.33-0.63,3.59c0,1.26,0.21,2.45,0.63,3.59c0.42,1.14,1.02,2.12,1.8,2.96c0.78,0.84,1.73,1.51,2.84,2
			s2.36,0.74,3.75,0.74C563.19,401.96,564.43,401.71,565.54,401.21z"/>
		<path class="st6" d="M583.25,391.58c0.66,0.35,1.32,0.7,1.98,1.04c0.66,0.34,1.25,0.73,1.77,1.17c0.52,0.44,0.94,0.96,1.26,1.55
			c0.32,0.6,0.48,1.32,0.48,2.18c0,0.77-0.2,1.48-0.6,2.13c-0.4,0.65-0.93,1.21-1.6,1.67c-0.67,0.46-1.44,0.83-2.31,1.09
			c-0.87,0.26-1.78,0.4-2.73,0.4c-0.71,0-1.49-0.09-2.36-0.28c-0.87-0.19-1.76-0.64-2.66-1.37c-0.07-0.07-0.15-0.1-0.27-0.1
			c-0.15,0-0.28,0.08-0.36,0.23l-0.2,0.33v-2.98l0.63,1.06c0.26,0.42,0.6,0.78,0.99,1.07s0.83,0.54,1.31,0.73
			c0.47,0.19,0.96,0.32,1.47,0.4s0.99,0.12,1.46,0.12c0.7,0,1.39-0.09,2.07-0.28s1.27-0.47,1.8-0.84c0.53-0.37,0.95-0.84,1.27-1.41
			c0.32-0.56,0.48-1.21,0.48-1.93c0-0.51-0.15-0.97-0.46-1.39c-0.31-0.42-0.71-0.8-1.21-1.16c-0.5-0.35-1.05-0.68-1.65-0.99
			c-0.61-0.31-1.21-0.63-1.8-0.96c-0.66-0.35-1.33-0.71-2.02-1.07c-0.68-0.36-1.31-0.76-1.87-1.17s-1.03-0.88-1.39-1.39
			c-0.36-0.51-0.55-1.09-0.55-1.75c0-0.77,0.16-1.48,0.5-2.12c0.33-0.64,0.78-1.18,1.36-1.62c0.57-0.44,1.26-0.78,2.07-1.03
			c0.8-0.24,1.68-0.36,2.63-0.36c0.64,0,1.29,0.08,1.95,0.23c0.66,0.15,1.29,0.38,1.89,0.66c0.04,0.02,0.11,0.03,0.2,0.03
			c0.15,0,0.26-0.07,0.33-0.2l0.27-0.43v2.98l-0.36-0.63c-0.48-0.81-1.1-1.33-1.85-1.54c-0.75-0.21-1.55-0.31-2.41-0.31
			c-0.68,0-1.33,0.08-1.95,0.25s-1.15,0.4-1.59,0.69c-0.44,0.3-0.79,0.64-1.06,1.04c-0.26,0.4-0.4,0.84-0.4,1.32
			c0,0.68,0.18,1.26,0.55,1.74c0.36,0.48,0.82,0.89,1.36,1.26c0.54,0.36,1.13,0.69,1.79,0.99c0.65,0.3,1.27,0.6,1.87,0.91
			L583.25,391.58z"/>
	</g>
</g>
</svg>
