<svg version="1.1" id="Capa_1" xmlns="http://www.w3.org/2000/svg" x="0" y="0" viewBox="0 0 792 612" style="enable-background:new 0 0 792 612" xml:space="preserve"><style>.st0{fill:#e2b572}.st3{fill:#1e4761}</style><path class="st0" d="M376.58 293.15h-6.7c-1.35 0-2.46-1.11-2.46-2.46v-6.7c0-1.35 1.11-2.46 2.46-2.46h6.7c1.35 0 2.46 1.11 2.46 2.46v6.7c0 1.35-1.11 2.46-2.46 2.46zM391.1 293.15h-6.7c-1.35 0-2.46-1.11-2.46-2.46v-6.7c0-1.35 1.11-2.46 2.46-2.46h6.7c1.35 0 2.46 1.11 2.46 2.46v6.7c0 1.35-1.11 2.46-2.46 2.46zM391.1 307.89h-6.7c-1.35 0-2.46-1.11-2.46-2.46v-6.7c0-1.35 1.11-2.46 2.46-2.46h6.7c1.35 0 2.46 1.11 2.46 2.46v6.7c0 1.36-1.11 2.46-2.46 2.46zM376.8 307.89h-6.7c-1.35 0-2.46-1.11-2.46-2.46v-6.7c0-1.35 1.11-2.46 2.46-2.46h6.7c1.35 0 2.46 1.11 2.46 2.46v6.7c0 1.36-1.1 2.46-2.46 2.46z"/><linearGradient id="SVGID_1_" gradientUnits="userSpaceOnUse" x1="321.72" y1="224.809" x2="505.643" y2="224.809"><stop offset="0" style="stop-color:#1d445e"/><stop offset=".158" style="stop-color:#1e3852"/><stop offset=".521" style="stop-color:#1c223b"/><stop offset=".815" style="stop-color:#19172f"/><stop offset="1" style="stop-color:#17132b"/></linearGradient><path d="M505.64 250.35c0-51.2-41.17-92.71-91.96-92.71-50.79 0-91.96 41.51-91.96 92.71 0 .56.01 1.12.02 1.67l17.39-9.9c.01-.07.01-.14.02-.2l43.89-25.68 55 31.33v11.33l16.67 10-.05-30.42-20.62-11.87v-16.05h-17v6.26l-32.85-18.91-39.12 21.91c11.71-26.78 38.26-45.49 69.15-45.49 41.73 0 75.55 34.12 75.55 76.2 0 12.06-2.8 23.46-7.75 33.6l13.85 7.86c6.25-12.53 9.77-26.67 9.77-41.64z" style="fill:url(#SVGID_1_)"/><linearGradient id="SVGID_00000062903966264465520730000008896366423136524974_" gradientUnits="userSpaceOnUse" x1="286.425" y1="297.266" x2="492.121" y2="297.266"><stop offset="0" style="stop-color:#17132b"/><stop offset="1" style="stop-color:#1d445e"/></linearGradient><path style="fill:url(#SVGID_00000062903966264465520730000008896366423136524974_)" d="M478.3 297.39c-.02.04-.04.08-.07.12l-95-54.13-44.89 24.99c-.4-3.19-.64-6.44-.64-9.74l-16.42 9.7c.34 3.21.85 6.36 1.5 9.46l-36.37 21 8.13 14.08 33.13-19.13c13.77 33.69 46.66 57.42 85.05 57.42 33.85 0 63.43-18.45 79.39-45.91l-13.81-7.86zm-65.04 37.43c-31.66 0-60.24-21.09-71.47-48.95l41.98-23.81 84.1 49.19c-13.76 14.52-33.13 23.57-54.61 23.57z"/><circle class="st0" cx="382.67" cy="232.5" r="7.59"/><path class="st3" d="M274 453.8c-5.52 2.03-11.09-1.33-14.64-11.82l-1.36-4.01h-9.6l-2.42 6.24c-.51 1.4.43 2.2 1.33 2.2h.31v.35h-7.05v-.35h.32c1.02 0 2.25-.59 2.98-2.02l8.67-20.81c-1.52-2.17-3.75-3.47-7.37-2.16l-.1-.35c8.2-3.47 10.66 3.23 12.4 8.16l4.27 12.1c1.98 5.61 5.88 13.48 12.25 12.12l.01.35zm-16.36-16.87-2.76-8.17c-.41-1.21-.88-2.5-1.46-3.67l-4.61 11.83h8.83zM291.69 435.38c-1.13 0-1.77.57-1.75 1.58v5.79c-1.6 2.12-4.87 4.51-10.12 4.51-7.44-.04-12.58-5.12-12.58-12.74 0-7.64 5.14-12.74 12.57-12.74 3.85 0 6.43 1.04 8.49 2.36l.71 4.94h-.29c-1.06-4.01-4.27-6.26-8.89-6.26-5.93 0-9.96 4.68-9.96 11.69 0 6.99 4.02 11.66 9.96 11.69 3.04 0 5.88-1.17 7.9-3.04v-6.2c0-1.02-.67-1.6-1.8-1.6h-.55v-.35h6.86v.35h-.55zM318.8 422.26v.35h-.57c-.98 0-1.79.69-1.85 1.65v13.84c0 5.49-3.77 9.15-9.44 9.15-5.82 0-9.71-3.63-9.71-9.09v-13.82c-.02-1.01-.84-1.73-1.85-1.73h-.57v-.35h7.11v.35h-.57c-.99 0-1.8.7-1.85 1.68v13.36c0 5.1 2.97 8.5 7.43 8.5 4.68 0 7.79-3.22 7.8-8.05v-13.8c-.04-.98-.85-1.68-1.85-1.68h-.57v-.35h6.49zM341.25 444.21c.71 1.56 2 2.2 3.08 2.2h.29v.35h-7.88v-.35h.31c.9 0 1.84-.8 1.33-2.2l-2.24-5.96h-9.43l-2.34 5.98c-.49 1.39.44 2.18 1.34 2.18h.31v.35h-7.05v-.35h.32c1.06 0 2.36-.64 3.07-2.2l7.94-18.84s1.3-2.83 1.3-3.61h.32l9.33 22.45zm-5.51-7-4.22-11.23-4.4 11.23h8.62zM357.11 436.44c1.4 1.29 1.76 2.85 1.76 4.27 0 3.87-2.53 6.55-6.55 6.55-1.71 0-4.55-.49-5.93-1.91-.26-1.08-.13-3.31.4-4.88h.31c-.35 3.61 1.93 5.92 5.05 5.74 2.56-.14 4.69-1.89 4.69-4.69 0-1.37-.5-2.45-1.37-3.26l-6.71-6.23c-1.42-1.29-1.9-2.98-1.9-4.34 0-2.95 2.16-5.92 6.15-5.92.92 0 2.07.16 3 .36h1.39v4.29h-.34c.01-2.24-1.76-3.6-3.94-3.6-2.58 0-4.3 1.89-4.3 4.03 0 .91.31 2.21 1.41 3.23l6.88 6.36zM385.76 436.55l-.43 5.49c-1.84 3.02-4.98 5.21-9.84 5.21-7.32-.04-12.5-5.04-12.5-12.78 0-7.6 5-12.71 12.71-12.71 3.43 0 6.23 1.01 8.28 2.36l.71 4.94h-.29c-1.06-4.09-4.49-6.26-8.7-6.26-6.15 0-10.07 4.66-10.07 11.62 0 7.04 3.99 11.62 9.88 11.76 4.97-.02 9.18-2.49 9.97-9.66h.28zM409.43 444.21c.71 1.56 2 2.2 3.08 2.2h.29v.35h-7.88v-.35h.31c.9 0 1.84-.8 1.33-2.2l-2.24-5.96h-9.43l-2.34 5.98c-.49 1.39.44 2.18 1.34 2.18h.31v.35h-7.05v-.35h.32c1.06 0 2.36-.64 3.07-2.2l7.94-18.84s1.3-2.83 1.3-3.61h.32l9.33 22.45zm-5.51-7-4.22-11.23-4.4 11.23h8.62zM431.07 441.11l-2.04 5.65h-14.51v-.35h.44c1.22 0 2.22-.98 2.24-2.2v-19.4a2.241 2.241 0 0 0-2.24-2.2h-.44l-.01-.35h7.66l-.01.35h-.44c-1.23 0-2.22.98-2.24 2.2v20.88h5.02c3.71 0 5.13-1.92 6.21-4.58h.36zM441.32 446.77h-7.66v-.35h.44c1.22 0 2.22-.98 2.24-2.2V424.8a2.246 2.246 0 0 0-2.24-2.19h-.44l-.01-.35h7.66l-.01.35h-.44c-1.22 0-2.21.97-2.24 2.18v19.42c.02 1.22 1.02 2.2 2.24 2.2h.44l.02.36zM462.04 441.11l-2.04 5.65h-14.51l.01-.35h.44c1.22 0 2.22-.98 2.24-2.2v-19.6c0-1.13-1.07-2-2.23-2h-.44v-.35h10.23c1.51-.01 3.52-.36 4.17-.64v4.41l-.35-.01v-.62c0-1.11-.87-2.02-1.96-2.08h-7.14v10.82h5.92a1.72 1.72 0 0 0 1.69-1.72v-.52h.34v5.54h-.34v-.52c0-.93-.74-1.69-1.66-1.72h-5.95v10.49h5.02c3.71 0 5.13-1.92 6.21-4.58h.35zM491.46 422.26v.35h-.65c-1.17 0-2.12.93-2.16 2.09v18.08c0 2.26.32 4.47.32 4.47h-.32l-19.09-20.36v17.43c.04 1.16.99 2.09 2.16 2.09h.65l.01.35h-7.21l.01-.35h.65c1.18 0 2.14-.95 2.16-2.12V426.1c0-2.39-.32-4.37-.32-4.37h.35l19.06 20.36v-17.36a2.162 2.162 0 0 0-2.16-2.12h-.65v-.35h7.19zM509.76 422.23c1.51-.01 3.56-.36 4.21-.64v4.4l-.35-.01v-.62c0-1.12-.89-2.04-2-2.08h-6.63v20.97a2.242 2.242 0 0 0 2.24 2.17h.44l.01.35h-7.66v-.35h.44c1.21 0 2.19-.95 2.24-2.14v-20.99h-6.64c-1.11.05-2 .96-2 2.08v.62l-.35.01v-4.4c.66.28 2.7.63 4.22.64h11.83zM533.3 441.11l-2.04 5.65h-14.51l.01-.35h.44c1.22 0 2.22-.98 2.24-2.2v-19.6c0-1.13-1.07-2-2.23-2h-.44v-.35H527c1.51-.01 3.52-.36 4.17-.64v4.41l-.35-.01v-.62c0-1.11-.87-2.02-1.96-2.08h-7.14v10.82h5.92a1.72 1.72 0 0 0 1.69-1.72v-.52h.34v5.54h-.34v-.52c0-.93-.74-1.69-1.66-1.72h-5.95v10.49h5.02c3.71 0 5.13-1.92 6.21-4.58h.35zM547.72 436.44c1.4 1.29 1.76 2.85 1.76 4.27 0 3.87-2.53 6.55-6.55 6.55-1.71 0-4.55-.49-5.93-1.91-.26-1.08-.13-3.31.4-4.88h.31c-.35 3.61 1.93 5.92 5.05 5.74 2.56-.14 4.69-1.89 4.69-4.69 0-1.37-.5-2.45-1.37-3.26l-6.71-6.23c-1.42-1.29-1.9-2.98-1.9-4.34 0-2.95 2.16-5.92 6.15-5.92.92 0 2.07.16 3 .36h1.39v4.29h-.34c.01-2.24-1.76-3.6-3.94-3.6-2.58 0-4.3 1.89-4.3 4.03 0 .91.31 2.21 1.41 3.23l6.88 6.36z"/><path class="st0" d="M212.36 389.29c.77.42 1.52.83 2.26 1.22.74.4 1.4.85 2 1.35.59.51 1.07 1.09 1.44 1.77s.54 1.5.54 2.49c0 .88-.23 1.69-.68 2.43-.45.74-1.06 1.37-1.82 1.9s-1.64.94-2.64 1.24c-1 .3-2.04.45-3.12.45-.81 0-1.71-.11-2.69-.33s-1.99-.74-3.02-1.55c-.09-.07-.2-.1-.33-.1-.2 0-.34.08-.43.23l-.23.36v-3.4l.73 1.22c.29.48.66.9 1.12 1.24.46.34.96.62 1.5.83s1.1.36 1.68.45 1.14.13 1.67.13c.81 0 1.61-.11 2.38-.33.77-.22 1.45-.54 2.05-.97.59-.43 1.07-.96 1.43-1.58.36-.63.54-1.36.54-2.19 0-.59-.18-1.13-.53-1.6-.35-.47-.81-.91-1.37-1.32s-1.19-.79-1.9-1.16-1.4-.72-2.08-1.07c-.75-.4-1.51-.8-2.29-1.21-.78-.41-1.49-.85-2.13-1.32-.64-.47-1.17-1-1.58-1.58s-.63-1.25-.63-2c0-.88.19-1.68.56-2.39.37-.71.89-1.33 1.55-1.83.66-.51 1.45-.9 2.38-1.17.92-.27 1.92-.41 3-.41.73 0 1.47.09 2.23.26.76.18 1.48.42 2.16.73.04.02.11.03.2.03.2 0 .34-.08.43-.23l.3-.5v3.4l-.43-.69c-.26-.46-.58-.83-.94-1.11a4.12 4.12 0 0 0-1.19-.63c-.43-.14-.88-.24-1.35-.3-.47-.05-.95-.08-1.44-.08-.79 0-1.53.09-2.23.28-.69.19-1.29.45-1.8.79s-.91.74-1.2 1.21-.45.97-.45 1.52c0 .79.2 1.46.61 2s.92 1.02 1.53 1.44 1.3.79 2.05 1.12 1.45.67 2.11 1.02l.05-.06zM235.75 398.79l-.92 3.37h-13l.46-.17c.33-.13.6-.35.81-.64s.31-.63.31-1.01v-16.63a1.748 1.748 0 0 0-1.12-1.65l-.46-.17h12.47l.17 2.54-.43-.79c-.15-.29-.37-.51-.64-.68s-.57-.25-.87-.25h-7.56v8.58h4.85c.35 0 .67-.09.96-.28.29-.19.51-.43.66-.74l.2-.4v3.46l-.2-.4c-.15-.31-.37-.55-.66-.74a1.71 1.71 0 0 0-.96-.28h-4.85v9.37h7.75c.95 0 1.68-.38 2.21-1.16l.82-1.33zM256.02 402.12h-3.04l-4.82-8.81c-.29-.51-.72-.76-1.29-.76h-4.65v7.79a1.748 1.748 0 0 0 1.12 1.65l.46.17h-4.69l.46-.17c.33-.13.6-.35.81-.64.21-.3.31-.63.31-1.01v-16.63a1.748 1.748 0 0 0-1.12-1.65l-.46-.17h7.26c1.43 0 2.6.14 3.5.41.9.28 1.61.66 2.13 1.14.52.48.88 1.05 1.07 1.7.2.65.3 1.34.3 2.06 0 .59-.06 1.16-.18 1.7s-.34 1.03-.66 1.48c-.32.45-.75.84-1.3 1.17s-1.25.57-2.11.73c.15.04.29.14.4.28.11.14.19.27.23.38.13.24.3.54.5.89s.41.74.63 1.15c.22.42.45.85.69 1.29.24.44.47.87.69 1.29.53.99 1.09 2.02 1.68 3.1.31.57.77.98 1.39 1.22l.69.24zm-9.67-10.43c.7 0 1.39-.05 2.05-.17.66-.11 1.24-.32 1.75-.64s.91-.77 1.22-1.35c.31-.58.46-1.36.46-2.33s-.15-1.74-.46-2.33c-.31-.58-.71-1.03-1.22-1.35-.51-.32-1.09-.53-1.75-.64s-1.34-.17-2.05-.17h-4.16v8.98h4.16zM276.67 381.93l-.66.3c-.64.31-1.08.78-1.32 1.42l-7.92 18.51-7.99-18.61c-.26-.7-.77-1.2-1.52-1.49l-.33-.13h4.69l-.79.3c-.24.09-.41.24-.51.45-.1.21-.1.43-.02.68l6.8 15.74 6.8-15.74c.09-.22.09-.43 0-.64s-.24-.37-.46-.48l-.66-.3h3.89zM283.32 401.35c.21.3.48.51.81.64l.46.17h-4.69l.46-.17c.33-.13.6-.35.81-.64.21-.3.31-.63.31-1.01v-16.63a1.748 1.748 0 0 0-1.12-1.65l-.46-.17h4.69l-.46.17c-.33.13-.6.35-.81.64s-.31.63-.31 1.01v16.63c0 .38.11.71.31 1.01zM298.78 382.82c-1.3 0-2.51.24-3.65.71a9.34 9.34 0 0 0-2.97 1.95c-.85.83-1.51 1.81-2 2.95s-.73 2.38-.73 3.7c0 1.41.25 2.68.76 3.83a9.195 9.195 0 0 0 2.05 2.94c.86.81 1.85 1.44 2.99 1.88 1.13.44 2.32.66 3.55.66.48 0 1.02-.05 1.6-.15.58-.1 1.16-.25 1.72-.46a7.29 7.29 0 0 0 1.55-.79c.47-.32.85-.7 1.14-1.14l.53-.86V401l-.2-.36a.439.439 0 0 0-.4-.23c-.07 0-.14.02-.23.07-.84.57-1.74 1.01-2.71 1.3-.97.3-1.97.45-3 .45-1.67 0-3.17-.26-4.5-.79s-2.46-1.25-3.4-2.18c-.94-.92-1.66-2-2.16-3.23-.51-1.23-.76-2.54-.76-3.93 0-1.39.25-2.7.76-3.93a9.75 9.75 0 0 1 2.16-3.23c.93-.92 2.07-1.65 3.4-2.18 1.33-.53 2.83-.79 4.5-.79 1.03 0 2.03.15 3 .45.97.3 1.87.73 2.71 1.3.09.04.17.07.23.07.18 0 .31-.08.4-.23l.2-.33v2.97l-.5-.83c-.26-.44-.64-.83-1.12-1.16a7.07 7.07 0 0 0-1.6-.81c-.58-.21-1.17-.37-1.77-.48s-1.12-.17-1.58-.17l.03.07zM311.97 401.35c.21.3.48.51.81.64l.46.17h-4.69l.46-.17c.33-.13.6-.35.81-.64.21-.3.31-.63.31-1.01v-16.63a1.748 1.748 0 0 0-1.12-1.65l-.46-.17h4.69l-.46.17c-.33.13-.6.35-.81.64s-.31.63-.31 1.01v16.63c-.01.38.1.71.31 1.01zM331.04 382.59c1.26.44 2.38 1.08 3.35 1.93.97.85 1.75 1.9 2.34 3.17.59 1.27.89 2.72.89 4.37s-.3 3.1-.89 4.36c-.59 1.25-1.38 2.31-2.34 3.15a9.96 9.96 0 0 1-3.35 1.93c-1.27.44-2.58.66-3.94.66-1.34 0-2.65-.22-3.93-.66a9.954 9.954 0 0 1-3.37-1.93c-.97-.85-1.75-1.9-2.34-3.15-.59-1.25-.89-2.71-.89-4.36 0-1.65.3-3.11.89-4.37.59-1.26 1.37-2.32 2.34-3.17.97-.85 2.09-1.49 3.37-1.93 1.28-.44 2.58-.66 3.93-.66 1.36 0 2.68.22 3.94.66zm-.23 18c1.11-.5 2.06-1.16 2.84-2a8.77 8.77 0 0 0 1.8-2.95c.42-1.13.63-2.33.63-3.58s-.21-2.45-.63-3.58c-.42-1.13-1.02-2.12-1.8-2.95-.78-.84-1.73-1.5-2.84-2-1.11-.5-2.35-.74-3.71-.74-1.39 0-2.63.25-3.75.74-1.11.5-2.06 1.16-2.84 2a8.77 8.77 0 0 0-1.8 2.95c-.42 1.13-.63 2.33-.63 3.58s.21 2.45.63 3.58c.42 1.13 1.02 2.12 1.8 2.95.78.84 1.73 1.5 2.84 2 1.11.5 2.36.74 3.75.74 1.36 0 2.6-.25 3.71-.74zM348.48 390.97c.66.35 1.32.7 1.98 1.04.66.34 1.25.73 1.77 1.17s.94.96 1.25 1.55c.32.59.48 1.32.48 2.18 0 .77-.2 1.48-.59 2.13-.4.65-.93 1.2-1.6 1.67s-1.44.83-2.31 1.09c-.87.26-1.78.4-2.72.4-.7 0-1.49-.09-2.36-.28s-1.75-.64-2.66-1.37a.34.34 0 0 0-.26-.1c-.15 0-.28.08-.36.23l-.2.33v-2.97l.63 1.06c.26.42.59.78.99 1.07.4.3.83.54 1.3.73.47.19.96.32 1.47.4s.99.12 1.45.12c.7 0 1.39-.09 2.06-.28s1.27-.47 1.8-.84.95-.84 1.27-1.4c.32-.56.48-1.2.48-1.93 0-.51-.15-.97-.46-1.39-.31-.42-.71-.8-1.21-1.16-.5-.35-1.04-.68-1.65-.99-.61-.31-1.21-.63-1.8-.96-.66-.35-1.33-.71-2.01-1.07-.68-.36-1.3-.75-1.87-1.17-.56-.42-1.02-.88-1.39-1.39-.36-.51-.54-1.09-.54-1.75 0-.77.17-1.47.5-2.11.33-.64.78-1.18 1.35-1.62.57-.44 1.26-.78 2.06-1.02a9.118 9.118 0 0 1 4.57-.13c.66.15 1.29.37 1.88.66.04.02.11.03.2.03.15 0 .26-.07.33-.2l.26-.43v2.97l-.36-.63c-.48-.81-1.1-1.33-1.85-1.53s-1.55-.31-2.41-.31c-.68 0-1.33.08-1.95.25-.62.17-1.14.4-1.58.69-.44.3-.79.64-1.06 1.04-.26.4-.4.84-.4 1.32 0 .68.18 1.26.54 1.73.36.47.81.89 1.35 1.25s1.13.69 1.78.99c.65.3 1.27.6 1.86.91l-.01.02zM372.62 401.23c.23.33.53.57.91.73l.53.2h-5.38l.53-.2c.37-.15.68-.4.91-.73.23-.33.35-.7.35-1.12v-18.97c0-.42-.12-.79-.35-1.12-.23-.33-.53-.57-.91-.73l-.53-.2h5.38l-.53.2c-.37.15-.68.4-.91.73-.23.33-.35.7-.35 1.12v18.97c0 .42.12.79.35 1.12zM395.7 381.99l-.5.23c-.31.15-.56.37-.74.66-.19.29-.28.59-.28.92v18.41l-14.49-18.45v16.63c0 .33.09.64.28.92.19.29.43.51.74.66l.49.23h-3.83l.49-.23c.31-.15.56-.37.74-.66.19-.29.28-.59.28-.92v-16.63c0-.33-.09-.64-.28-.92-.19-.29-.43-.51-.74-.66l-.49-.23h2.87l13.13 16.7v-14.92c0-.33-.09-.64-.28-.92-.19-.29-.43-.51-.74-.66l-.5-.23 3.85.07zM418.77 400.41c0 .38.1.71.31 1.01s.48.51.81.64l.46.17h-4.69l.46-.17c.33-.13.6-.35.81-.64.21-.3.31-.63.31-1.01v-16.76l-7.95 18.55-7.99-18.61v16.8c0 .33.09.64.28.92s.43.51.74.66l.49.23H399l.49-.23c.31-.15.56-.37.74-.66.19-.29.28-.59.28-.92v-16.63c0-.33-.09-.64-.28-.92-.19-.29-.43-.51-.74-.66l-.49-.23h3.33l7.36 17.13 7.33-17.13h3.33l-.46.17c-.33.13-.6.35-.81.64s-.31.63-.31 1.01v16.64zM438.16 382.59c1.26.44 2.38 1.08 3.35 1.93.97.85 1.75 1.9 2.34 3.17.59 1.27.89 2.72.89 4.37s-.3 3.1-.89 4.36c-.59 1.25-1.38 2.31-2.34 3.15a9.96 9.96 0 0 1-3.35 1.93c-1.27.44-2.58.66-3.94.66-1.34 0-2.65-.22-3.93-.66a9.954 9.954 0 0 1-3.37-1.93c-.97-.85-1.75-1.9-2.34-3.15-.59-1.25-.89-2.71-.89-4.36 0-1.65.3-3.11.89-4.37.59-1.26 1.37-2.32 2.34-3.17.97-.85 2.09-1.49 3.37-1.93 1.28-.44 2.58-.66 3.93-.66 1.36 0 2.67.22 3.94.66zm-.23 18c1.11-.5 2.06-1.16 2.84-2a8.77 8.77 0 0 0 1.8-2.95c.42-1.13.63-2.33.63-3.58s-.21-2.45-.63-3.58c-.42-1.13-1.02-2.12-1.8-2.95-.78-.84-1.73-1.5-2.84-2-1.11-.5-2.35-.74-3.71-.74-1.39 0-2.63.25-3.75.74-1.11.5-2.06 1.16-2.84 2a8.77 8.77 0 0 0-1.8 2.95c-.42 1.13-.63 2.33-.63 3.58s.21 2.45.63 3.58c.42 1.13 1.02 2.12 1.8 2.95.78.84 1.73 1.5 2.84 2 1.11.5 2.36.74 3.75.74 1.36 0 2.6-.25 3.71-.74zM459.62 391.13c1.39.42 2.46 1.07 3.22 1.96.76.89 1.14 2 1.14 3.32 0 1.8-.7 3.21-2.1 4.22s-3.33 1.52-5.79 1.52h-8.05l.46-.17c.33-.13.6-.35.81-.64.21-.3.31-.63.31-1.01V383.7a1.748 1.748 0 0 0-1.12-1.65l-.46-.17h7.26c.97 0 1.88.06 2.72.18.85.12 1.58.36 2.21.73.63.36 1.12.88 1.48 1.55.36.67.54 1.56.54 2.66 0 .92-.24 1.73-.71 2.42s-1.11 1.26-1.9 1.7h-.02zm-8.51-8.41v8.12h4.79c.64 0 1.24-.05 1.82-.15.57-.1 1.08-.29 1.52-.58.44-.29.79-.68 1.06-1.17.26-.5.4-1.14.4-1.93 0-.84-.13-1.53-.38-2.08s-.6-.99-1.04-1.32c-.44-.33-.95-.56-1.52-.69-.57-.13-1.18-.2-1.81-.2h-4.84zm5.48 18.58c.57 0 1.2-.07 1.88-.21.68-.14 1.32-.4 1.91-.78s1.09-.88 1.48-1.52c.4-.64.59-1.44.59-2.41 0-1.72-.53-2.93-1.58-3.65-1.06-.71-2.5-1.07-4.32-1.07h-5.45v9.64h5.49zM470.73 401.35c.21.3.48.51.81.64l.46.17h-4.69l.46-.17c.33-.13.6-.35.81-.64.21-.3.31-.63.31-1.01v-16.63a1.748 1.748 0 0 0-1.12-1.65l-.46-.17H472l-.46.17c-.33.13-.6.35-.81.64s-.31.63-.31 1.01v16.63c0 .38.1.71.31 1.01zM489.19 398.76l-.92 3.37h-13l.46-.17c.33-.13.6-.35.81-.64.21-.3.31-.63.31-1.01v-16.63a1.748 1.748 0 0 0-1.12-1.65l-.46-.17h4.69l-.46.17c-.33.13-.6.35-.81.64s-.31.63-.31 1.01v17.62h7.75c.95 0 1.68-.38 2.21-1.16l.85-1.38zM495.94 401.35c.21.3.48.51.81.64l.46.17h-4.69l.46-.17c.33-.13.6-.35.81-.64.21-.3.31-.63.31-1.01v-16.63a1.748 1.748 0 0 0-1.12-1.65l-.46-.17h4.69l-.46.17c-.33.13-.6.35-.81.64s-.31.63-.31 1.01v16.63c0 .38.1.71.31 1.01zM516.32 401.86h-.07c.24-.09.41-.24.51-.45.1-.21.1-.43.02-.68l-2.9-6.7h-7.79l-2.9 6.7c-.09.22-.09.43 0 .64.09.21.24.37.46.48l.66.3h-3.83l.66-.3c.64-.31 1.08-.78 1.32-1.42l7.92-18.51 7.99 18.61c.26.71.77 1.2 1.52 1.49l.33.13h-4.69l.79-.29zm-9.9-8.65h7.1l-3.56-8.22-3.54 8.22zM539.61 402.12h-3.04l-4.82-8.81c-.29-.51-.72-.76-1.29-.76h-4.65v7.79a1.748 1.748 0 0 0 1.12 1.65l.46.17h-4.69l.46-.17c.33-.13.6-.35.81-.64.21-.3.31-.63.31-1.01v-16.63a1.748 1.748 0 0 0-1.12-1.65l-.46-.17h7.26c1.43 0 2.6.14 3.5.41.9.28 1.61.66 2.13 1.14.52.48.88 1.05 1.07 1.7.2.65.3 1.34.3 2.06 0 .59-.06 1.16-.18 1.7s-.34 1.03-.66 1.48c-.32.45-.75.84-1.3 1.17s-1.25.57-2.11.73c.15.04.29.14.4.28.11.14.19.27.23.38.13.24.3.54.5.89s.41.74.63 1.15c.22.42.45.85.69 1.29.24.44.47.87.69 1.29.53.99 1.09 2.02 1.68 3.1.31.57.77.98 1.39 1.22l.69.24zm-9.66-10.43c.7 0 1.39-.05 2.05-.17.66-.11 1.24-.32 1.75-.64s.91-.77 1.22-1.35c.31-.58.46-1.36.46-2.33s-.15-1.74-.46-2.33c-.31-.58-.71-1.03-1.22-1.35-.51-.32-1.09-.53-1.75-.64s-1.34-.17-2.05-.17h-4.16v8.98h4.16zM546.36 401.35c.21.3.48.51.81.64l.46.17h-4.69l.46-.17c.33-.13.6-.35.81-.64.21-.3.31-.63.31-1.01v-16.63a1.748 1.748 0 0 0-1.12-1.65l-.46-.17h4.69l-.46.17c-.33.13-.6.35-.81.64s-.31.63-.31 1.01v16.63c0 .38.1.71.31 1.01zM565.44 382.59c1.26.44 2.38 1.08 3.35 1.93.97.85 1.75 1.9 2.34 3.17.59 1.27.89 2.72.89 4.37s-.3 3.1-.89 4.36c-.59 1.25-1.38 2.31-2.34 3.15a9.96 9.96 0 0 1-3.35 1.93c-1.27.44-2.58.66-3.94.66-1.34 0-2.65-.22-3.93-.66a9.954 9.954 0 0 1-3.37-1.93c-.97-.85-1.75-1.9-2.34-3.15-.59-1.25-.89-2.71-.89-4.36 0-1.65.3-3.11.89-4.37.59-1.26 1.37-2.32 2.34-3.17.97-.85 2.09-1.49 3.37-1.93 1.28-.44 2.58-.66 3.93-.66 1.36 0 2.67.22 3.94.66zm-.23 18c1.11-.5 2.06-1.16 2.84-2a8.77 8.77 0 0 0 1.8-2.95c.42-1.13.63-2.33.63-3.58s-.21-2.45-.63-3.58c-.42-1.13-1.02-2.12-1.8-2.95-.78-.84-1.73-1.5-2.84-2-1.11-.5-2.35-.74-3.71-.74-1.39 0-2.63.25-3.75.74-1.11.5-2.06 1.16-2.84 2a8.77 8.77 0 0 0-1.8 2.95c-.42 1.13-.63 2.33-.63 3.58s.21 2.45.63 3.58c.42 1.13 1.02 2.12 1.8 2.95.78.84 1.73 1.5 2.84 2 1.11.5 2.36.74 3.75.74 1.36 0 2.59-.25 3.71-.74zM582.88 390.97c.66.35 1.32.7 1.98 1.04.66.34 1.25.73 1.77 1.17s.94.96 1.25 1.55c.32.59.48 1.32.48 2.18 0 .77-.2 1.48-.59 2.13-.4.65-.93 1.2-1.6 1.67s-1.44.83-2.31 1.09c-.87.26-1.78.4-2.72.4-.7 0-1.49-.09-2.36-.28s-1.75-.64-2.66-1.37a.34.34 0 0 0-.26-.1c-.15 0-.28.08-.36.23l-.2.33v-2.97l.63 1.06c.26.42.59.78.99 1.07.4.3.83.54 1.3.73.47.19.96.32 1.47.4s.99.12 1.45.12c.7 0 1.39-.09 2.06-.28s1.27-.47 1.8-.84.95-.84 1.27-1.4c.32-.56.48-1.2.48-1.93 0-.51-.15-.97-.46-1.39-.31-.42-.71-.8-1.21-1.16-.5-.35-1.04-.68-1.65-.99-.61-.31-1.21-.63-1.8-.96-.66-.35-1.33-.71-2.01-1.07-.68-.36-1.3-.75-1.87-1.17-.56-.42-1.02-.88-1.39-1.39-.36-.51-.54-1.09-.54-1.75 0-.77.17-1.47.5-2.11.33-.64.78-1.18 1.35-1.62.57-.44 1.26-.78 2.06-1.02a9.118 9.118 0 0 1 4.57-.13c.66.15 1.29.37 1.88.66.04.02.11.03.2.03.15 0 .26-.07.33-.2l.26-.43v2.97l-.36-.63c-.48-.81-1.1-1.33-1.85-1.53s-1.55-.31-2.41-.31c-.68 0-1.33.08-1.95.25-.62.17-1.14.4-1.58.69-.44.3-.79.64-1.06 1.04-.26.4-.4.84-.4 1.32 0 .68.18 1.26.54 1.73.36.47.81.89 1.35 1.25s1.13.69 1.78.99c.65.3 1.27.6 1.86.91l-.01.02z"/></svg>