<svg version="1.1" id="Capa_1" xmlns="http://www.w3.org/2000/svg" x="0" y="0" viewBox="0 0 792 612" style="enable-background:new 0 0 792 612" xml:space="preserve"><style>.st4{fill:#020203}.st6{fill:#1f120d}</style><path class="st4" d="M376.47 294h-6.74c-1.36 0-2.48-1.11-2.48-2.48v-6.74c0-1.36 1.11-2.48 2.48-2.48h6.74c1.36 0 2.48 1.11 2.48 2.48v6.74a2.48 2.48 0 0 1-2.48 2.48zM391.07 294h-6.74c-1.36 0-2.48-1.11-2.48-2.48v-6.74c0-1.36 1.11-2.48 2.48-2.48h6.74c1.36 0 2.48 1.11 2.48 2.48v6.74c0 1.37-1.12 2.48-2.48 2.48zM391.07 308.82h-6.74c-1.36 0-2.48-1.11-2.48-2.48v-6.74c0-1.36 1.11-2.48 2.48-2.48h6.74c1.36 0 2.48 1.11 2.48 2.48v6.74c0 1.37-1.12 2.48-2.48 2.48zM376.7 308.82h-6.74c-1.36 0-2.48-1.11-2.48-2.48v-6.74c0-1.36 1.11-2.48 2.48-2.48h6.74c1.36 0 2.48 1.11 2.48 2.48v6.74a2.492 2.492 0 0 1-2.48 2.48zM506.23 250.96c0-51.48-41.39-93.21-92.46-93.21-51.06 0-92.46 41.73-92.46 93.21 0 .56.01 1.12.02 1.68l17.48-9.95c.01-.07.01-.14.02-.2l44.12-25.82 55.3 31.5v11.39l16.76 10.05-.05-30.58-20.73-11.93v-16.14h-17.09v6.29l-33.03-19.02-39.33 22.03c11.78-26.93 38.46-45.74 69.52-45.74 41.95 0 75.96 34.3 75.96 76.61 0 12.13-2.81 23.59-7.79 33.78l13.92 7.9c6.3-12.57 9.84-26.79 9.84-41.85z"/><path d="M478.74 298.27c-.02.04-.04.08-.07.12l-95.51-54.43-45.13 25.12c-.41-3.21-.64-6.47-.64-9.79l-16.51 9.75c.34 3.22.86 6.39 1.51 9.51l-36.56 21.11 8.17 14.16 33.31-19.23c13.85 33.88 46.91 57.73 85.51 57.73 34.04 0 63.77-18.54 79.82-46.15l-13.9-7.9zm-65.39 37.63c-31.83 0-60.56-21.21-71.86-49.22l42.21-23.93 84.55 49.46c-13.83 14.59-33.3 23.69-54.9 23.69z" style="fill:#020304"/><circle class="st4" cx="382.6" cy="233.03" r="7.63"/><path class="st4" d="M280.74 453.71c-5.21 1.92-10.48-1.26-13.83-11.16l-1.28-3.78h-9.07l-2.29 5.9c-.48 1.32.4 2.08 1.26 2.08h.29v.33h-6.66v-.33h.3c.96 0 2.13-.56 2.81-1.9l8.19-19.66c-1.43-2.05-3.54-3.28-6.96-2.04l-.09-.33c7.75-3.28 10.07 3.05 11.71 7.7l4.03 11.43c1.87 5.3 5.56 12.74 11.57 11.45l.02.31zm-15.45-15.93-2.61-7.71c-.39-1.15-.83-2.36-1.38-3.47l-4.35 11.18h8.34zM297.45 436.31c-1.07 0-1.67.54-1.65 1.5v5.47c-1.51 2-4.6 4.26-9.56 4.26-7.03-.03-11.89-4.84-11.89-12.04 0-7.22 4.85-12.04 11.88-12.04 3.64 0 6.07.98 8.02 2.23l.67 4.67h-.28c-1-3.78-4.03-5.91-8.4-5.91-5.6 0-9.4 4.42-9.4 11.05 0 6.6 3.8 11.02 9.4 11.05 2.87 0 5.55-1.11 7.46-2.87v-5.86c0-.97-.63-1.51-1.7-1.51h-.52v-.33h6.48v.33h-.51zM323.06 423.92v.33h-.54c-.93 0-1.69.65-1.75 1.56v13.08c0 5.18-3.57 8.64-8.91 8.64-5.5 0-9.17-3.43-9.17-8.58v-13.06c-.02-.95-.79-1.64-1.75-1.64h-.54v-.33h6.72v.33h-.54c-.94 0-1.7.66-1.74 1.59v12.62c0 4.82 2.81 8.03 7.02 8.03 4.42 0 7.36-3.04 7.37-7.6v-13.04c-.04-.93-.81-1.59-1.75-1.59h-.54v-.33l6.12-.01zM344.28 444.66c.67 1.47 1.89 2.08 2.91 2.08h.28v.33h-7.45v-.33h.29c.85 0 1.74-.75 1.26-2.08l-2.12-5.63h-8.91l-2.22 5.65c-.47 1.31.41 2.06 1.26 2.06h.29v.33h-6.66v-.33h.3c1.01 0 2.23-.61 2.9-2.08l7.5-17.79s1.22-2.68 1.22-3.41h.3l8.85 21.2zm-5.21-6.62-3.99-10.61-4.16 10.61h8.15zM359.26 437.32c1.32 1.22 1.66 2.7 1.66 4.03 0 3.66-2.39 6.18-6.19 6.18-1.62 0-4.3-.46-5.6-1.81-.25-1.02-.12-3.13.38-4.61h.29c-.33 3.41 1.83 5.59 4.77 5.42 2.41-.13 4.43-1.79 4.43-4.43 0-1.29-.47-2.31-1.3-3.08l-6.33-5.88c-1.34-1.22-1.79-2.82-1.79-4.1 0-2.79 2.04-5.59 5.81-5.59.87 0 1.96.15 2.84.34h1.31v4.06h-.32c.01-2.12-1.66-3.4-3.72-3.4-2.44 0-4.07 1.79-4.07 3.8 0 .86.29 2.08 1.33 3.05l6.5 6.02zM386.32 437.42l-.4 5.19c-1.74 2.85-4.7 4.93-9.29 4.93-6.91-.03-11.81-4.76-11.81-12.07 0-7.17 4.73-12 12-12 3.24 0 5.89.96 7.82 2.23l.67 4.67h-.28c-1-3.86-4.25-5.91-8.22-5.91-5.81 0-9.52 4.4-9.52 10.98 0 6.65 3.77 10.98 9.33 11.11 4.69-.01 8.67-2.35 9.42-9.12h.28zM408.69 444.66c.67 1.47 1.89 2.08 2.91 2.08h.28v.33h-7.45v-.33h.29c.85 0 1.74-.75 1.26-2.08l-2.12-5.63h-8.91l-2.22 5.65c-.47 1.31.41 2.06 1.26 2.06h.29v.33h-6.66v-.33h.3c1.01 0 2.23-.61 2.9-2.08l7.5-17.79s1.22-2.68 1.22-3.41h.3l8.85 21.2zm-5.2-6.62-3.99-10.61-4.16 10.61h8.15zM429.13 441.73l-1.93 5.34h-13.71l.01-.33h.42c1.16 0 2.1-.93 2.12-2.08v-18.33a2.12 2.12 0 0 0-2.12-2.08h-.42v-.33h7.23v.33h-.42c-1.16 0-2.1.93-2.12 2.08v19.72h4.74c3.5 0 4.85-1.81 5.87-4.33l.33.01zM438.81 447.07h-7.23l.01-.33h.41c1.16 0 2.1-.93 2.12-2.08v-18.34a2.117 2.117 0 0 0-2.12-2.07h-.42v-.33h7.23v.33h-.42c-1.15 0-2.09.92-2.12 2.06v18.35a2.12 2.12 0 0 0 2.12 2.08h.42v.33zM458.39 441.73l-1.93 5.34h-13.71l.01-.33h.42c1.16 0 2.1-.93 2.12-2.08v-18.51c0-1.06-1.01-1.89-2.11-1.89h-.42l-.01-.33h9.66c1.43-.01 3.33-.34 3.94-.6v4.17h-.33v-.59c0-1.05-.82-1.91-1.85-1.97h-6.74v10.22h5.59c.89-.02 1.6-.74 1.6-1.63v-.49h.32v5.23h-.32v-.49c0-.88-.69-1.59-1.56-1.63h-5.62v9.91h4.74c3.5 0 4.85-1.81 5.87-4.33h.33zM486.18 423.92v.33h-.61c-1.11 0-2.01.88-2.04 1.98v17.08c0 2.13.3 4.22.3 4.22h-.3L465.5 428.3v16.46c.03 1.1.93 1.98 2.04 1.98h.61l.01.33h-6.81v-.33h.61c1.11 0 2.02-.89 2.04-2v-17.18c0-2.26-.3-4.13-.3-4.13h.33l18.01 19.23v-16.4c-.02-1.11-.92-2-2.04-2h-.61v-.33h6.79zM503.47 423.89c1.43-.01 3.36-.34 3.98-.6v4.16h-.33v-.59c0-1.06-.84-1.92-1.89-1.97h-6.27v19.81a2.12 2.12 0 0 0 2.12 2.05h.42l.01.33h-7.24v-.33h.42c1.14 0 2.07-.9 2.12-2.03v-19.83h-6.27c-1.05.05-1.89.91-1.89 1.97v.59h-.33v-4.16c.62.26 2.55.59 3.98.6h11.17zM525.72 441.73l-1.93 5.34h-13.71l.01-.33h.42c1.16 0 2.1-.93 2.12-2.08v-18.51c0-1.06-1.01-1.89-2.11-1.89h-.42l-.01-.33h9.66c1.43-.01 3.33-.34 3.94-.6v4.17h-.33v-.59c0-1.05-.82-1.91-1.85-1.97h-6.74v10.22h5.59c.89-.02 1.6-.74 1.6-1.63v-.49h.32v5.23h-.32v-.49c0-.88-.69-1.59-1.57-1.63h-5.62v9.91h4.74c3.5 0 4.85-1.81 5.87-4.33h.34zM539.34 437.32c1.32 1.22 1.66 2.7 1.66 4.03 0 3.66-2.39 6.18-6.19 6.18-1.62 0-4.3-.46-5.6-1.81-.25-1.02-.12-3.13.38-4.61h.29c-.33 3.41 1.83 5.59 4.77 5.42 2.41-.13 4.43-1.79 4.43-4.43 0-1.29-.47-2.31-1.3-3.08l-6.33-5.88c-1.34-1.22-1.79-2.82-1.79-4.1 0-2.79 2.04-5.59 5.81-5.59.87 0 1.96.15 2.84.34h1.31v4.06h-.32c.01-2.12-1.66-3.4-3.72-3.4-2.44 0-4.07 1.79-4.07 3.8 0 .86.29 2.08 1.33 3.05l6.5 6.02z"/><path class="st6" d="M211.99 389.89c.77.42 1.53.83 2.27 1.22.74.4 1.41.85 2 1.36.6.51 1.07 1.1 1.44 1.77.36.67.55 1.51.55 2.5 0 .88-.23 1.69-.68 2.43-.45.74-1.06 1.37-1.82 1.9-.76.53-1.64.94-2.64 1.24-1 .3-2.05.45-3.13.45-.82 0-1.71-.11-2.7-.33-.98-.22-1.99-.74-3.03-1.55-.09-.07-.2-.1-.33-.1-.2 0-.34.08-.43.23l-.23.36v-3.41l.73 1.22c.29.48.66.9 1.12 1.24.46.34.96.62 1.51.83.54.21 1.1.36 1.69.45.58.09 1.14.13 1.67.13.82 0 1.61-.11 2.38-.33a6.49 6.49 0 0 0 2.05-.98c.6-.43 1.07-.96 1.44-1.59.36-.63.55-1.36.55-2.2 0-.6-.18-1.13-.53-1.6-.35-.47-.81-.91-1.37-1.32-.56-.41-1.2-.79-1.9-1.16-.71-.36-1.4-.72-2.08-1.07-.75-.4-1.52-.8-2.3-1.21-.78-.41-1.49-.85-2.13-1.32-.64-.47-1.17-1-1.59-1.59a3.33 3.33 0 0 1-.63-2c0-.88.19-1.68.56-2.4.37-.72.89-1.33 1.55-1.83.66-.51 1.45-.9 2.38-1.17s1.93-.41 3.01-.41c.73 0 1.47.09 2.23.26.76.18 1.48.42 2.17.73.04.02.11.03.2.03.2 0 .34-.08.43-.23l.3-.5v3.41l-.43-.69c-.27-.46-.58-.83-.94-1.11a4.12 4.12 0 0 0-1.19-.63c-.43-.14-.88-.24-1.36-.3-.47-.05-.95-.08-1.44-.08-.79 0-1.54.09-2.23.28-.69.19-1.3.45-1.8.79-.51.34-.91.74-1.21 1.21-.3.46-.45.97-.45 1.52 0 .79.2 1.46.61 2s.92 1.02 1.54 1.44c.62.42 1.3.79 2.05 1.12.75.33 1.46.67 2.12 1.03l.02-.04zM235.43 399.41l-.93 3.37h-13.03l.46-.16c.33-.13.6-.35.81-.64.21-.3.31-.63.31-1.01V384.3a1.748 1.748 0 0 0-1.12-1.65l-.46-.17h12.5l.17 2.55-.43-.79c-.15-.29-.37-.51-.64-.68-.28-.16-.57-.25-.88-.25h-7.57v8.6h4.86c.35 0 .67-.09.96-.28.29-.19.51-.43.66-.74l.2-.4v3.47l-.2-.4c-.15-.31-.37-.56-.66-.74a1.71 1.71 0 0 0-.96-.28h-4.86v9.39h7.77c.95 0 1.69-.39 2.22-1.16l.82-1.36zM255.73 402.75h-3.04l-4.83-8.83c-.29-.51-.72-.76-1.29-.76h-4.66v7.8a1.748 1.748 0 0 0 1.12 1.65l.46.16h-4.69l.46-.16c.33-.13.6-.35.81-.64.21-.3.31-.63.31-1.01V384.3a1.748 1.748 0 0 0-1.12-1.65l-.46-.17h7.27c1.43 0 2.6.14 3.51.41.9.28 1.61.66 2.13 1.14.52.49.88 1.05 1.07 1.7.2.65.3 1.34.3 2.07 0 .6-.06 1.16-.18 1.7s-.34 1.04-.66 1.49c-.32.45-.76.84-1.31 1.17-.55.33-1.26.57-2.12.73.15.04.29.14.4.28s.19.27.23.38c.13.24.3.54.5.89s.41.74.63 1.16c.22.42.45.85.69 1.29.24.44.47.87.69 1.29.53.99 1.09 2.03 1.69 3.11.31.57.77.98 1.39 1.22l.7.24zm-9.68-10.45c.7 0 1.39-.06 2.05-.16.66-.11 1.25-.33 1.75-.64.51-.32.91-.77 1.22-1.36.31-.58.46-1.36.46-2.33s-.15-1.75-.46-2.33c-.31-.58-.72-1.04-1.22-1.36-.51-.32-1.09-.54-1.75-.64-.66-.11-1.34-.17-2.05-.17h-4.17v8.99h4.17zM276.43 382.52l-.66.3c-.64.31-1.08.78-1.32 1.42l-7.94 18.55-8-18.65c-.27-.71-.77-1.2-1.52-1.49l-.33-.13h4.69l-.79.3c-.24.09-.41.24-.51.45-.1.21-.1.44-.02.68l6.81 15.77 6.81-15.77c.09-.22.09-.43 0-.64a.934.934 0 0 0-.46-.48l-.66-.3h3.9zM283.1 401.98c.21.3.48.51.81.64l.46.16h-4.69l.46-.16c.33-.13.6-.35.81-.64.21-.3.31-.63.31-1.01V384.3a1.748 1.748 0 0 0-1.12-1.65l-.46-.17h4.69l-.46.17c-.33.13-.6.35-.81.64s-.31.63-.31 1.01v16.67c-.01.37.1.71.31 1.01zM298.59 383.41c-1.3 0-2.52.24-3.65.71a9.275 9.275 0 0 0-2.98 1.95c-.85.83-1.52 1.81-2 2.96-.49 1.15-.73 2.38-.73 3.7 0 1.41.25 2.69.76 3.84s1.19 2.13 2.05 2.94c.86.82 1.86 1.45 2.99 1.89 1.13.44 2.32.66 3.55.66.49 0 1.02-.05 1.6-.15.58-.1 1.16-.25 1.72-.46.56-.21 1.08-.47 1.55-.79s.85-.7 1.14-1.14l.53-.86v2.98l-.2-.36a.439.439 0 0 0-.4-.23c-.07 0-.14.02-.23.07-.84.57-1.74 1.01-2.71 1.31-.97.3-1.97.45-3.01.45-1.68 0-3.18-.26-4.51-.79-1.33-.53-2.47-1.26-3.41-2.18a9.768 9.768 0 0 1-2.17-3.24 10.19 10.19 0 0 1-.76-3.93c0-1.39.25-2.7.76-3.93a9.768 9.768 0 0 1 2.17-3.24c.94-.93 2.07-1.65 3.41-2.18 1.33-.53 2.84-.79 4.51-.79 1.04 0 2.04.15 3.01.45.97.3 1.87.73 2.71 1.31.09.04.16.07.23.07.18 0 .31-.08.4-.23l.2-.33v2.98l-.5-.83c-.26-.44-.64-.83-1.12-1.16a7.07 7.07 0 0 0-1.6-.81c-.58-.21-1.17-.37-1.77-.48-.6-.11-1.12-.16-1.59-.16h.05zM311.8 401.98c.21.3.48.51.81.64l.46.16h-4.69l.46-.16c.33-.13.6-.35.81-.64.21-.3.31-.63.31-1.01V384.3a1.748 1.748 0 0 0-1.12-1.65l-.46-.17h4.69l-.46.17c-.33.13-.6.35-.81.64-.21.3-.31.63-.31 1.01v16.67c-.01.37.1.71.31 1.01zM330.91 383.18c1.27.44 2.39 1.09 3.36 1.93.97.85 1.75 1.91 2.35 3.17.6 1.27.89 2.73.89 4.38s-.3 3.11-.89 4.37c-.6 1.26-1.38 2.31-2.35 3.16-.97.85-2.09 1.49-3.36 1.94-1.27.44-2.58.66-3.95.66-1.35 0-2.66-.22-3.93-.66a9.977 9.977 0 0 1-3.37-1.94c-.97-.85-1.75-1.9-2.35-3.16-.6-1.26-.89-2.71-.89-4.37 0-1.65.3-3.11.89-4.38.6-1.27 1.38-2.32 2.35-3.17.97-.85 2.09-1.49 3.37-1.93 1.28-.44 2.59-.66 3.93-.66 1.36 0 2.68.22 3.95.66zm-.23 18.03c1.11-.5 2.06-1.16 2.84-2 .78-.84 1.38-1.82 1.8-2.96.42-1.13.63-2.33.63-3.59 0-1.26-.21-2.45-.63-3.59a8.814 8.814 0 0 0-1.8-2.96c-.78-.84-1.73-1.5-2.84-2-1.11-.5-2.35-.74-3.72-.74-1.39 0-2.64.25-3.75.74s-2.06 1.16-2.84 2c-.78.84-1.38 1.82-1.8 2.96-.42 1.14-.63 2.33-.63 3.59 0 1.26.21 2.45.63 3.59a8.717 8.717 0 0 0 1.8 2.96c.78.84 1.73 1.51 2.84 2s2.36.74 3.75.74c1.36.01 2.6-.24 3.72-.74zM348.38 391.58c.66.35 1.32.7 1.98 1.04.66.34 1.25.73 1.77 1.17.52.44.94.96 1.26 1.55.32.6.48 1.32.48 2.18 0 .77-.2 1.48-.6 2.13-.4.65-.93 1.21-1.6 1.67-.67.46-1.44.83-2.31 1.09-.87.26-1.78.4-2.73.4-.71 0-1.49-.09-2.36-.28-.87-.19-1.76-.64-2.66-1.37-.07-.07-.15-.1-.27-.1-.15 0-.28.08-.36.23l-.2.33v-2.98l.63 1.06c.26.42.6.78.99 1.07s.83.54 1.31.73c.47.19.96.32 1.47.4.51.08.99.12 1.46.12.7 0 1.39-.09 2.07-.28.67-.19 1.27-.47 1.8-.84s.95-.84 1.27-1.41c.32-.56.48-1.21.48-1.93 0-.51-.15-.97-.46-1.39-.31-.42-.71-.8-1.21-1.16a14.4 14.4 0 0 0-1.65-.99c-.61-.31-1.21-.63-1.8-.96-.66-.35-1.33-.71-2.02-1.07-.68-.36-1.31-.76-1.87-1.17-.56-.42-1.03-.88-1.39-1.39a2.96 2.96 0 0 1-.55-1.75c0-.77.16-1.48.5-2.12.33-.64.78-1.18 1.36-1.62.57-.44 1.26-.78 2.07-1.03.8-.24 1.68-.36 2.63-.36.64 0 1.29.08 1.95.23a9.4 9.4 0 0 1 1.89.66c.04.02.11.03.2.03.15 0 .26-.07.33-.2l.27-.43v2.98l-.36-.63c-.48-.81-1.1-1.33-1.85-1.54-.75-.21-1.55-.31-2.41-.31-.68 0-1.33.08-1.95.25-.62.16-1.15.4-1.59.69-.44.3-.79.64-1.06 1.04-.26.4-.4.84-.4 1.32 0 .68.18 1.26.55 1.74.36.48.82.89 1.36 1.26.54.36 1.13.69 1.79.99.65.3 1.27.6 1.87.91l-.08.04zM372.57 401.86c.23.33.53.57.91.73l.53.2h-5.39l.53-.2c.37-.15.68-.4.91-.73s.35-.7.35-1.12v-19.01c0-.42-.12-.79-.35-1.12-.23-.33-.54-.57-.91-.73l-.53-.2h5.39l-.53.2c-.38.15-.68.4-.91.73-.23.33-.35.71-.35 1.12v19.01c0 .41.12.79.35 1.12zM395.7 382.58l-.5.23c-.31.15-.56.37-.74.66-.19.29-.28.6-.28.92v18.45l-14.52-18.48v16.66c0 .33.09.64.28.93.19.29.44.51.74.66l.5.23h-3.84l.5-.23c.31-.15.56-.37.74-.66.19-.29.28-.6.28-.93v-16.66c0-.33-.09-.64-.28-.93-.19-.29-.44-.51-.74-.66l-.5-.23h2.88l13.16 16.73v-14.95c0-.33-.09-.64-.28-.93-.19-.29-.44-.51-.74-.66l-.5-.23 3.84.08zM418.81 401.03c0 .38.1.71.31 1.01.21.3.48.51.81.64l.46.16h-4.69l.46-.16c.33-.13.6-.35.81-.64.21-.3.31-.63.31-1.01v-16.8l-7.97 18.58-8-18.65V401c0 .33.09.64.28.93.19.29.44.51.74.66l.5.23h-3.84l.5-.23c.31-.15.56-.37.74-.66.19-.29.28-.6.28-.93v-16.67c0-.33-.09-.64-.28-.93-.19-.29-.44-.51-.74-.66l-.5-.23h3.34l7.37 17.16 7.34-17.16h3.34l-.46.16c-.33.13-.6.35-.81.65-.21.3-.31.63-.31 1.01v16.7zM438.24 383.18c1.27.44 2.39 1.09 3.36 1.93.97.85 1.75 1.91 2.35 3.17.6 1.27.89 2.73.89 4.38s-.3 3.11-.89 4.37c-.6 1.26-1.38 2.31-2.35 3.16-.97.85-2.09 1.49-3.36 1.94-1.27.44-2.58.66-3.95.66-1.35 0-2.66-.22-3.93-.66a9.977 9.977 0 0 1-3.37-1.94c-.97-.85-1.75-1.9-2.35-3.16-.6-1.26-.89-2.71-.89-4.37 0-1.65.3-3.11.89-4.38.6-1.27 1.38-2.32 2.35-3.17.97-.85 2.09-1.49 3.37-1.93 1.28-.44 2.59-.66 3.93-.66 1.37 0 2.68.22 3.95.66zm-.23 18.03c1.11-.5 2.06-1.16 2.84-2 .78-.84 1.38-1.82 1.8-2.96.42-1.13.63-2.33.63-3.59 0-1.26-.21-2.45-.63-3.59a8.814 8.814 0 0 0-1.8-2.96c-.78-.84-1.73-1.5-2.84-2s-2.35-.74-3.72-.74c-1.39 0-2.64.25-3.75.74-1.11.5-2.06 1.16-2.84 2-.78.84-1.38 1.82-1.8 2.96-.42 1.14-.63 2.33-.63 3.59 0 1.26.21 2.45.63 3.59a8.717 8.717 0 0 0 1.8 2.96c.78.84 1.73 1.51 2.84 2 1.11.5 2.36.74 3.75.74 1.37.01 2.61-.24 3.72-.74zM459.75 391.74c1.39.42 2.46 1.07 3.22 1.97.76.89 1.14 2 1.14 3.32 0 1.81-.7 3.22-2.1 4.23-1.4 1.01-3.34 1.52-5.8 1.52h-8.07l.46-.16c.33-.13.6-.35.81-.64.21-.3.31-.63.31-1.01V384.3a1.748 1.748 0 0 0-1.12-1.65l-.46-.17h7.27c.97 0 1.88.06 2.73.18.85.12 1.59.36 2.22.73.63.36 1.12.88 1.49 1.55.36.67.55 1.56.55 2.66 0 .92-.24 1.74-.71 2.43-.47.69-1.11 1.26-1.9 1.7h-.04zm-8.53-8.43v8.14h4.8c.64 0 1.24-.05 1.82-.15s1.08-.29 1.52-.58c.44-.29.79-.68 1.06-1.17s.4-1.14.4-1.93c0-.84-.13-1.53-.38-2.08s-.6-.99-1.04-1.32c-.44-.33-.95-.56-1.52-.69-.57-.13-1.18-.2-1.82-.2h-4.84zm5.49 18.62c.57 0 1.2-.07 1.88-.22.68-.14 1.32-.4 1.92-.78.6-.37 1.09-.88 1.49-1.52.4-.64.6-1.44.6-2.41 0-1.72-.53-2.94-1.59-3.65-1.06-.72-2.5-1.07-4.33-1.07h-5.46v9.66h5.49zM470.88 401.98c.21.3.48.51.81.64l.46.16h-4.69l.46-.16c.33-.13.6-.35.81-.64.21-.3.31-.63.31-1.01V384.3a1.748 1.748 0 0 0-1.12-1.65l-.46-.17h4.69l-.46.17c-.33.13-.6.35-.81.64-.21.3-.31.63-.31 1.01v16.67c-.01.37.1.71.31 1.01zM489.38 399.38l-.93 3.37h-13.03l.46-.16c.33-.13.6-.35.81-.64.21-.3.31-.63.31-1.01v-16.66a1.748 1.748 0 0 0-1.12-1.65l-.46-.16h4.69l-.46.16c-.33.13-.6.35-.81.64-.21.3-.31.63-.31 1.01v17.66h7.77c.95 0 1.69-.39 2.22-1.16l.86-1.4zM496.14 401.98c.21.3.48.51.81.64l.46.16h-4.69l.46-.16c.33-.13.6-.35.81-.64.21-.3.31-.63.31-1.01V384.3a1.748 1.748 0 0 0-1.12-1.65l-.46-.17h4.69l-.46.17c-.33.13-.6.35-.81.64-.21.3-.31.63-.31 1.01v16.67c0 .37.1.71.31 1.01zM516.56 402.49h-.07c.24-.09.41-.24.51-.45s.1-.43.02-.68l-2.91-6.71h-7.8l-2.91 6.71c-.09.22-.09.44 0 .64.09.21.24.37.46.48l.66.3h-3.84l.66-.3c.64-.31 1.08-.78 1.32-1.42l7.94-18.55 8 18.65c.27.71.77 1.2 1.52 1.49l.33.13h-4.7l.81-.29zm-9.92-8.67h7.11l-3.57-8.23-3.54 8.23zM539.9 402.75h-3.04l-4.83-8.83c-.29-.51-.72-.76-1.29-.76h-4.66v7.8a1.748 1.748 0 0 0 1.12 1.65l.46.16h-4.69l.46-.16c.33-.13.6-.35.81-.64.21-.3.31-.63.31-1.01V384.3a1.748 1.748 0 0 0-1.12-1.65l-.46-.17h7.27c1.43 0 2.6.14 3.51.41.9.28 1.61.66 2.13 1.14.52.49.88 1.05 1.07 1.7.2.65.3 1.34.3 2.07 0 .6-.06 1.16-.18 1.7s-.34 1.04-.66 1.49c-.32.45-.76.84-1.31 1.17-.55.33-1.26.57-2.12.73.15.04.29.14.4.28s.19.27.23.38c.13.24.3.54.5.89s.41.74.63 1.16c.22.42.45.85.69 1.29.24.44.47.87.69 1.29.53.99 1.09 2.03 1.69 3.11.31.57.77.98 1.39 1.22l.7.24zm-9.69-10.45c.7 0 1.39-.06 2.05-.16.66-.11 1.25-.33 1.75-.64.51-.32.91-.77 1.22-1.36.31-.58.46-1.36.46-2.33s-.15-1.75-.46-2.33c-.31-.58-.72-1.04-1.22-1.36-.51-.32-1.09-.54-1.75-.64-.66-.11-1.34-.17-2.05-.17h-4.17v8.99h4.17zM546.66 401.98c.21.3.48.51.81.64l.46.16h-4.69l.46-.16c.33-.13.6-.35.81-.64.21-.3.31-.63.31-1.01V384.3a1.748 1.748 0 0 0-1.12-1.65l-.46-.17h4.69l-.46.17c-.33.13-.6.35-.81.64-.21.3-.31.63-.31 1.01v16.67c0 .37.1.71.31 1.01zM565.78 383.18c1.27.44 2.39 1.09 3.36 1.93.97.85 1.75 1.91 2.35 3.17.6 1.27.89 2.73.89 4.38s-.3 3.11-.89 4.37c-.6 1.26-1.38 2.31-2.35 3.16-.97.85-2.09 1.49-3.36 1.94-1.27.44-2.58.66-3.95.66-1.35 0-2.66-.22-3.93-.66a9.977 9.977 0 0 1-3.37-1.94c-.97-.85-1.75-1.9-2.35-3.16-.6-1.26-.89-2.71-.89-4.37 0-1.65.3-3.11.89-4.38.6-1.27 1.38-2.32 2.35-3.17.97-.85 2.09-1.49 3.37-1.93 1.28-.44 2.59-.66 3.93-.66 1.36 0 2.68.22 3.95.66zm-.24 18.03c1.11-.5 2.06-1.16 2.84-2 .78-.84 1.38-1.82 1.8-2.96.42-1.13.63-2.33.63-3.59 0-1.26-.21-2.45-.63-3.59a8.814 8.814 0 0 0-1.8-2.96c-.78-.84-1.73-1.5-2.84-2-1.11-.5-2.35-.74-3.72-.74-1.39 0-2.64.25-3.75.74s-2.06 1.16-2.84 2c-.78.84-1.38 1.82-1.8 2.96-.42 1.14-.63 2.33-.63 3.59 0 1.26.21 2.45.63 3.59a8.717 8.717 0 0 0 1.8 2.96c.78.84 1.73 1.51 2.84 2s2.36.74 3.75.74c1.37.01 2.61-.24 3.72-.74zM583.25 391.58c.66.35 1.32.7 1.98 1.04.66.34 1.25.73 1.77 1.17.52.44.94.96 1.26 1.55.32.6.48 1.32.48 2.18 0 .77-.2 1.48-.6 2.13-.4.65-.93 1.21-1.6 1.67-.67.46-1.44.83-2.31 1.09-.87.26-1.78.4-2.73.4-.71 0-1.49-.09-2.36-.28-.87-.19-1.76-.64-2.66-1.37-.07-.07-.15-.1-.27-.1-.15 0-.28.08-.36.23l-.2.33v-2.98l.63 1.06c.26.42.6.78.99 1.07s.83.54 1.31.73c.47.19.96.32 1.47.4s.99.12 1.46.12c.7 0 1.39-.09 2.07-.28s1.27-.47 1.8-.84.95-.84 1.27-1.41c.32-.56.48-1.21.48-1.93 0-.51-.15-.97-.46-1.39-.31-.42-.71-.8-1.21-1.16a14.4 14.4 0 0 0-1.65-.99c-.61-.31-1.21-.63-1.8-.96-.66-.35-1.33-.71-2.02-1.07-.68-.36-1.31-.76-1.87-1.17s-1.03-.88-1.39-1.39a2.96 2.96 0 0 1-.55-1.75c0-.77.16-1.48.5-2.12.33-.64.78-1.18 1.36-1.62.57-.44 1.26-.78 2.07-1.03.8-.24 1.68-.36 2.63-.36.64 0 1.29.08 1.95.23a9.4 9.4 0 0 1 1.89.66c.04.02.11.03.2.03.15 0 .26-.07.33-.2l.27-.43v2.98l-.36-.63c-.48-.81-1.1-1.33-1.85-1.54-.75-.21-1.55-.31-2.41-.31-.68 0-1.33.08-1.95.25s-1.15.4-1.59.69c-.44.3-.79.64-1.06 1.04-.26.4-.4.84-.4 1.32 0 .68.18 1.26.55 1.74.36.48.82.89 1.36 1.26.54.36 1.13.69 1.79.99.65.3 1.27.6 1.87.91l-.08.04z"/></svg>